<svg width="1440" height="737" viewBox="0 0 1440 737" fill="none" xmlns="http://www.w3.org/2000/svg">
<rect width="1440" height="737" fill="#8E7FF0"/>
<g clip-path="url(#clip0_514_2284)">
<path d="M578.179 445C618.384 445 651 477.454 651 517.488C651 557.546 618.384 590 578.179 590C550.916 590 527.126 575.076 514.66 552.95C514.042 551.505 513.303 550.108 512.471 548.781C507.689 541.13 499.72 535.657 490.418 534.188C490.037 534.141 489.68 534.094 489.3 534.047C489.223 534.038 489.146 534.032 489.069 534.023H402.823C402.11 533.976 401.371 533.952 400.634 533.952C399.896 533.952 399.159 533.976 398.445 534.023C398.255 534.047 398.041 534.046 397.851 534.094C397.494 534.094 397.137 534.141 396.78 534.188C386.884 535.373 378.367 541.106 373.419 549.208C373.395 549.255 373.347 549.326 373.323 549.373C372.728 550.368 372.181 551.411 371.682 552.477C359.287 574.839 335.379 590 307.901 590C307.683 590 307.465 589.997 307.247 589.995C307.029 589.997 306.811 590 306.593 590C279.33 590 255.54 575.076 243.074 552.95C242.456 551.505 241.717 550.108 240.885 548.781C236.103 541.13 228.134 535.657 218.832 534.188C218.451 534.141 218.094 534.094 217.714 534.047C216.453 533.905 215.168 533.81 213.859 533.81H192.925V534.023H95.7432C95.0295 533.976 94.2912 533.952 93.5537 533.952C92.8164 533.952 92.0788 533.976 91.3652 534.023C91.175 534.047 90.9607 534.046 90.7705 534.094C90.4138 534.094 90.0569 534.141 89.7002 534.188C79.8036 535.373 71.2872 541.106 66.3389 549.208C66.3151 549.255 66.267 549.326 66.2432 549.373C65.6484 550.368 65.1012 551.411 64.6016 552.477C52.207 574.839 28.2985 590 0.821289 590C-39.3837 590 -72 557.546 -72 517.512C-71.9999 477.454 -39.3837 445 0.821289 445C28.0844 445 51.874 459.924 64.3398 482.05C64.9583 483.495 65.6958 484.892 66.5283 486.219C71.3101 493.87 79.2802 499.343 88.582 500.812C88.9627 500.859 89.3196 500.906 89.7002 500.953C90.9609 501.095 92.2454 501.19 93.5537 501.19H114.489V500.977H211.671C212.384 501.024 213.122 501.048 213.859 501.048C214.597 501.048 215.335 501.024 216.049 500.977C216.239 500.953 216.453 500.954 216.644 500.906C217 500.906 217.357 500.859 217.714 500.812C227.61 499.627 236.127 493.894 241.075 485.792C241.099 485.745 241.147 485.674 241.171 485.627C241.766 484.632 242.313 483.589 242.812 482.523C255.207 460.161 279.116 445 306.593 445C306.811 445 307.029 445.002 307.247 445.004C307.465 445.002 307.683 445 307.901 445C335.165 445 358.954 459.924 371.42 482.05C372.038 483.495 372.776 484.892 373.608 486.219C378.39 493.87 386.36 499.343 395.662 500.812C396.043 500.859 396.4 500.906 396.78 500.953C396.857 500.962 396.934 500.968 397.011 500.977H483.257C483.97 501.024 484.708 501.048 485.445 501.048C486.183 501.048 486.921 501.024 487.635 500.977C487.825 500.953 488.039 500.954 488.229 500.906C488.586 500.906 488.943 500.859 489.3 500.812C499.196 499.627 507.713 493.894 512.661 485.792C512.685 485.745 512.733 485.674 512.757 485.627C513.352 484.632 513.899 483.589 514.398 482.523C526.793 460.161 550.701 445 578.179 445Z" fill="#191919"/>
</g>
<g clip-path="url(#clip1_514_2284)">
<path d="M1426.18 445C1398.92 445 1375.13 459.924 1362.66 482.05C1362.04 483.495 1361.3 484.892 1360.47 486.219C1355.69 493.87 1347.72 499.343 1338.42 500.812C1338.04 500.859 1337.68 500.906 1337.3 500.953C1336.04 501.095 1334.75 501.19 1333.45 501.19H1234.08V534.023H1331.26C1331.97 533.976 1332.71 533.952 1333.45 533.952C1334.18 533.952 1334.92 533.976 1335.63 534.023C1335.83 534.047 1336.04 534.046 1336.23 534.094C1336.59 534.094 1336.94 534.141 1337.3 534.188C1347.2 535.373 1355.71 541.106 1360.66 549.208C1360.68 549.255 1360.73 549.326 1360.76 549.373C1361.35 550.368 1361.9 551.411 1362.4 552.477C1374.79 574.839 1398.7 590 1426.18 590C1466.38 590 1499 557.546 1499 517.512C1499 477.454 1466.38 445 1426.18 445ZM851.865 445C809.979 445 776 477.454 776 517.488C776 557.546 809.98 590 851.865 590C880.268 590 905.053 575.076 918.04 552.95C918.684 551.505 919.453 550.108 920.32 548.781C925.302 541.13 933.604 535.657 943.295 534.188C943.691 534.141 944.063 534.094 944.46 534.047C945.774 533.905 947.112 533.81 948.476 533.81H1052V500.977H950.756C950.012 501.024 949.244 501.048 948.476 501.048C947.707 501.048 946.939 501.024 946.195 500.977C945.997 500.953 945.773 500.954 945.575 500.906C945.203 500.906 944.832 500.859 944.46 500.812C934.15 499.627 925.277 493.894 920.122 485.792C920.097 485.745 920.047 485.674 920.022 485.627C919.403 484.632 918.833 483.589 918.312 482.523C905.4 460.161 880.491 445 851.865 445Z" fill="#191919"/>
</g>
<path d="M714 314C826.666 314 918 405.334 918 518C918 630.666 826.666 722 714 722C601.334 722 510 630.666 510 518C510 405.334 601.334 314 714 314Z" fill="#191919"/>
<circle cx="1145.5" cy="517.5" r="90" fill="#FFF3AF" stroke="#8E7FF0" stroke-width="11"/>
<rect x="1071.5" y="444.5" width="149" height="149" rx="74.5" stroke="#191919"/>
<path fill-rule="evenodd" clip-rule="evenodd" d="M1156.1 492.515H1139.26V490.765H1158.76V511.693H1157.01V494.106L1135.52 517.235L1134.24 516.044L1156.1 492.515Z" fill="#191919"/>
<path d="M1111.72 540.142H1116.62V540.73C1116.62 542.004 1116.19 543.068 1115.3 543.922C1114.42 544.762 1113.26 545.182 1111.82 545.182C1110.32 545.182 1109.09 544.692 1108.11 543.712C1107.14 542.718 1106.65 541.514 1106.65 540.1C1106.65 538.686 1107.14 537.482 1108.11 536.502C1109.09 535.508 1110.32 535.018 1111.79 535.018C1112.7 535.018 1113.53 535.242 1114.28 535.676C1115.04 536.11 1115.63 536.67 1116.03 537.384L1114.91 538.042C1114.35 536.978 1113.13 536.278 1111.78 536.278C1110.66 536.278 1109.73 536.642 1109.02 537.384C1108.3 538.112 1107.94 539.022 1107.94 540.1C1107.94 541.178 1108.3 542.088 1109.02 542.816C1109.75 543.544 1110.68 543.908 1111.83 543.908C1113.79 543.908 1115.05 542.844 1115.32 541.318H1111.72V540.142ZM1124.8 542.06H1118.93C1119.17 543.306 1120.14 544.034 1121.47 544.034C1122.39 544.034 1123.06 543.698 1123.48 543.012L1124.52 543.6C1123.83 544.65 1122.81 545.182 1121.44 545.182C1120.33 545.182 1119.42 544.832 1118.72 544.146C1118.04 543.446 1117.69 542.564 1117.69 541.5C1117.69 540.45 1118.02 539.568 1118.71 538.868C1119.39 538.168 1120.28 537.818 1121.35 537.818C1122.38 537.818 1123.22 538.182 1123.86 538.91C1124.52 539.624 1124.84 540.492 1124.84 541.514C1124.84 541.696 1124.83 541.878 1124.8 542.06ZM1121.35 538.966C1120.05 538.966 1119.14 539.764 1118.93 540.996H1123.61C1123.4 539.666 1122.47 538.966 1121.35 538.966ZM1129.84 538V539.176H1127.98V542.97C1127.98 544.048 1128.6 543.964 1129.84 543.908V545C1127.71 545.28 1126.76 544.706 1126.76 542.97V539.176H1125.38V538H1126.76V536.404L1127.98 536.04V538H1129.84ZM1134.95 545V535.2H1136.25V545H1134.95ZM1141.72 537.818C1143.35 537.818 1144.43 538.924 1144.43 540.702V545H1143.21V540.772C1143.21 539.638 1142.56 538.98 1141.48 538.98C1140.26 538.98 1139.45 539.722 1139.45 541.29V545H1138.23V538H1139.45V539.008C1139.94 538.21 1140.69 537.818 1141.72 537.818ZM1148.96 535.2H1156.03V536.432H1153.13V545H1151.84V536.432H1148.96V535.2ZM1161.83 544.118C1161.12 544.832 1160.23 545.182 1159.21 545.182C1158.19 545.182 1157.31 544.832 1156.59 544.118C1155.88 543.404 1155.53 542.536 1155.53 541.5C1155.53 540.464 1155.88 539.596 1156.59 538.882C1157.31 538.168 1158.19 537.818 1159.21 537.818C1160.23 537.818 1161.12 538.168 1161.83 538.882C1162.54 539.596 1162.91 540.464 1162.91 541.5C1162.91 542.536 1162.54 543.404 1161.83 544.118ZM1159.21 543.992C1159.91 543.992 1160.5 543.754 1160.98 543.278C1161.45 542.802 1161.69 542.214 1161.69 541.5C1161.69 540.786 1161.45 540.198 1160.98 539.722C1160.5 539.246 1159.91 539.008 1159.21 539.008C1158.53 539.008 1157.94 539.246 1157.46 539.722C1156.99 540.198 1156.75 540.786 1156.75 541.5C1156.75 542.214 1156.99 542.802 1157.46 543.278C1157.94 543.754 1158.53 543.992 1159.21 543.992ZM1169.17 541.71V538H1170.39V545H1169.17V543.992C1168.68 544.79 1167.93 545.182 1166.9 545.182C1165.27 545.182 1164.19 544.076 1164.19 542.298V538H1165.41V542.228C1165.41 543.362 1166.06 544.02 1167.14 544.02C1168.36 544.02 1169.17 543.278 1169.17 541.71ZM1175.54 545.182C1174.49 545.182 1173.6 544.832 1172.9 544.132C1172.2 543.418 1171.85 542.55 1171.85 541.5C1171.85 540.45 1172.2 539.582 1172.9 538.882C1173.6 538.168 1174.49 537.818 1175.54 537.818C1176.92 537.818 1178.08 538.532 1178.63 539.652L1177.61 540.24C1177.26 539.498 1176.47 539.008 1175.54 539.008C1174.84 539.008 1174.25 539.246 1173.77 539.722C1173.31 540.198 1173.07 540.786 1173.07 541.5C1173.07 542.2 1173.31 542.788 1173.77 543.264C1174.25 543.74 1174.84 543.978 1175.54 543.978C1176.47 543.978 1177.26 543.502 1177.65 542.76L1178.69 543.362C1178.08 544.468 1176.89 545.182 1175.54 545.182ZM1183.39 537.818C1185.03 537.818 1186.1 538.924 1186.1 540.702V545H1184.89V540.772C1184.89 539.638 1184.23 538.98 1183.15 538.98C1181.93 538.98 1181.12 539.722 1181.12 541.29V545H1179.9V535.2H1181.12V539.008C1181.61 538.21 1182.37 537.818 1183.39 537.818Z" fill="#191919"/>
<path d="M1314 378.5H1216.5L1160.5 434.5" stroke="white"/>
<path d="M303.304 143.92C289.864 143.92 278.6 139.44 269.768 130.608C260.936 121.648 256.584 110.512 256.584 97.2C256.584 83.888 260.936 72.752 269.768 63.92C278.6 54.96 289.864 50.48 303.304 50.48C311.368 50.48 318.92 52.4 325.832 56.24C332.744 60.08 338.12 65.2 342.088 71.728L322.248 83.12C318.792 76.848 311.624 72.88 303.304 72.88C296.136 72.88 290.376 75.184 285.896 79.664C281.544 84.144 279.368 89.904 279.368 97.2C279.368 104.496 281.544 110.384 285.896 114.864C290.376 119.344 296.136 121.52 303.304 121.52C311.624 121.52 318.792 117.68 322.248 111.152L342.088 122.672C334.28 135.856 319.688 143.92 303.304 143.92ZM440.36 130.48C431.272 139.44 420.264 143.92 407.08 143.92C393.896 143.92 382.76 139.44 373.672 130.48C364.584 121.392 360.104 110.384 360.104 97.2C360.104 84.016 364.584 73.008 373.672 64.048C382.76 54.96 393.896 50.48 407.08 50.48C420.264 50.48 431.272 54.96 440.36 64.048C449.448 73.008 454.056 84.016 454.056 97.2C454.056 110.384 449.448 121.392 440.36 130.48ZM389.8 114.736C394.408 119.216 400.168 121.52 407.08 121.52C413.992 121.52 419.752 119.216 424.36 114.736C428.968 110.128 431.272 104.24 431.272 97.2C431.272 90.16 428.968 84.272 424.36 79.792C419.752 75.184 413.992 72.88 407.08 72.88C400.168 72.88 394.408 75.184 389.8 79.792C385.192 84.272 382.888 90.16 382.888 97.2C382.888 104.24 385.192 110.128 389.8 114.736ZM525.613 97.456V52.4H548.397V142H530.733L499.117 96.944V142H476.205V52.4H493.997L525.613 97.456ZM623.508 97.456V52.4H646.292V142H628.628L597.012 96.944V142H574.1V52.4H591.892L623.508 97.456ZM694.907 107.312V120.496H729.595V142H671.995V52.4H728.955V73.776H694.907V86.192H725.755V107.312H694.907ZM794.654 143.92C781.214 143.92 769.95 139.44 761.118 130.608C752.286 121.648 747.934 110.512 747.934 97.2C747.934 83.888 752.286 72.752 761.118 63.92C769.95 54.96 781.214 50.48 794.654 50.48C802.718 50.48 810.27 52.4 817.182 56.24C824.094 60.08 829.47 65.2 833.438 71.728L813.598 83.12C810.142 76.848 802.974 72.88 794.654 72.88C787.486 72.88 781.726 75.184 777.246 79.664C772.894 84.144 770.718 89.904 770.718 97.2C770.718 104.496 772.894 110.384 777.246 114.864C781.726 119.344 787.486 121.52 794.654 121.52C802.974 121.52 810.142 117.68 813.598 111.152L833.438 122.672C825.63 135.856 811.038 143.92 794.654 143.92ZM847.9 52.4H915.1V74.544H892.956V142H870.044V74.544H847.9V52.4ZM934.93 142V52.4H957.842V142H934.93ZM1032.86 97.456V52.4H1055.64V142H1037.98L1006.36 96.944V142H983.45V52.4H1001.24L1032.86 97.456ZM1125.12 90.672H1170.31V99.76C1170.31 112.944 1166.21 123.568 1157.89 131.76C1149.7 139.824 1139.07 143.92 1125.89 143.92C1111.94 143.92 1100.42 139.44 1091.33 130.48C1082.37 121.52 1077.89 110.512 1077.89 97.328C1077.89 84.144 1082.37 73.136 1091.33 64.048C1100.29 54.96 1111.42 50.48 1124.61 50.48C1132.93 50.48 1140.61 52.4 1147.52 56.112C1154.56 59.824 1159.94 64.816 1163.9 71.088L1144.45 82.224C1140.86 76.592 1133.57 72.88 1124.86 72.88C1117.82 72.88 1111.94 75.184 1107.46 79.792C1102.98 84.4 1100.67 90.288 1100.67 97.456C1100.67 104.368 1102.85 110.256 1107.33 114.992C1111.81 119.728 1118.21 122.16 1126.27 122.16C1136.64 122.16 1143.55 118.192 1146.88 110.384H1125.12V90.672Z" fill="white"/>
<path d="M362.304 265.92C348.864 265.92 337.6 261.44 328.768 252.608C319.936 243.648 315.584 232.512 315.584 219.2C315.584 205.888 319.936 194.752 328.768 185.92C337.6 176.96 348.864 172.48 362.304 172.48C370.368 172.48 377.92 174.4 384.832 178.24C391.744 182.08 397.12 187.2 401.088 193.728L381.248 205.12C377.792 198.848 370.624 194.88 362.304 194.88C355.136 194.88 349.376 197.184 344.896 201.664C340.544 206.144 338.368 211.904 338.368 219.2C338.368 226.496 340.544 232.384 344.896 236.864C349.376 241.344 355.136 243.52 362.304 243.52C370.624 243.52 377.792 239.68 381.248 233.152L401.088 244.672C393.28 257.856 378.688 265.92 362.304 265.92ZM492.106 264H467.53L451.914 235.072H443.722V264H420.81V174.4H456.65C465.738 174.4 473.418 177.344 479.562 183.232C485.834 188.992 488.906 196.416 488.906 205.376C488.906 216.128 483.018 225.6 473.674 230.848L492.106 264ZM456.394 195.52H443.722V215.616H456.394C462.026 215.744 465.994 211.648 465.994 205.632C465.994 199.616 462.026 195.52 456.394 195.52ZM534.617 229.312V242.496H569.305V264H511.705V174.4H568.665V195.776H534.617V208.192H565.465V229.312H534.617ZM672.335 264H647.631L643.791 251.072H613.967L610.127 264H585.295L614.863 174.4H642.767L672.335 264ZM628.815 200.896L619.855 231.36H637.903L628.815 200.896ZM676.235 174.4H743.435V196.544H721.291V264H698.379V196.544H676.235V174.4ZM763.265 264V174.4H786.177V264H763.265ZM860.937 264H833.673L804.745 174.4H829.833L847.241 236.096L864.777 174.4H889.865L860.937 264ZM908.43 264V174.4H931.342V264H908.43ZM951.19 174.4H1018.39V196.544H996.246V264H973.334V196.544H951.19V174.4ZM1088.78 174.4H1114.51L1084.3 229.568V264H1061.39V229.824L1031.18 174.4H1056.91L1072.78 207.552L1088.78 174.4Z" fill="white"/>
<path d="M866 702.112V692.828H894.246C894.453 692.841 894.668 692.848 894.882 692.848C895.096 692.848 895.311 692.841 895.518 692.828C895.573 692.821 895.636 692.821 895.691 692.808C895.795 692.808 895.898 692.794 896.002 692.781C898.879 692.446 901.354 690.825 902.792 688.534C902.799 688.521 902.813 688.501 902.82 688.488C902.993 688.206 903.152 687.911 903.297 687.61C906.899 681.287 913.848 677 921.835 677C933.52 677 943 686.177 943 697.497C943 708.823 933.52 718 921.835 718C913.911 718 906.996 713.78 903.373 707.524C903.193 707.115 902.979 706.72 902.737 706.345C901.347 704.182 899.031 702.634 896.327 702.219C896.216 702.206 896.113 702.192 896.002 702.179C895.636 702.139 895.262 702.112 894.882 702.112H866Z" fill="#8E7FF0"/>
<ellipse cx="929.5" cy="629" rx="33.5" ry="33" fill="#8E7FF0"/>
<circle cx="934.5" cy="697.5" r="33.5" fill="#8E7FF0"/>
<ellipse cx="526.5" cy="697.5" rx="32.5" ry="33.5" fill="#8E7FF0"/>
<circle cx="457.5" cy="697.5" r="33.5" fill="#8E7FF0"/>
<path d="M1194.66 359.52L1196.22 354H1198.05L1195.54 362H1193.84L1192.18 356.608L1190.5 362H1188.8L1186.29 354H1188.11L1189.66 359.52L1191.34 354H1192.99L1194.66 359.52ZM1200.94 352.752C1200.5 353.168 1199.86 353.168 1199.42 352.752C1199 352.304 1199 351.664 1199.42 351.232C1199.85 350.8 1200.52 350.8 1200.95 351.232C1201.37 351.664 1201.37 352.304 1200.94 352.752ZM1201.05 362H1199.32V354H1201.05V362ZM1207.52 354V355.664H1205.53V359.504C1205.53 360.528 1206.21 360.512 1207.52 360.448V362C1204.88 362.32 1203.81 361.6 1203.81 359.504V355.664H1202.33V354H1203.81V352.272L1205.53 351.76V354H1207.52ZM1213.37 353.792C1215.21 353.792 1216.44 355.04 1216.44 357.088V362H1214.72V357.264C1214.72 356.064 1214.03 355.408 1212.92 355.408C1211.71 355.408 1210.89 356.16 1210.89 357.712V362H1209.16V350.8H1210.89V355.024C1211.42 354.208 1212.24 353.792 1213.37 353.792ZM1229.14 358.4V350.8H1230.98V362H1229.54L1224.26 354.4V362H1222.42V350.8H1223.86L1229.14 358.4ZM1240.83 358.736H1234.46C1234.72 359.952 1235.69 360.624 1237.02 360.624C1237.93 360.624 1238.62 360.288 1239.09 359.632L1240.51 360.464C1239.73 361.632 1238.56 362.208 1237.01 362.208C1235.71 362.208 1234.65 361.808 1233.85 361.024C1233.05 360.224 1232.65 359.216 1232.65 358C1232.65 356.8 1233.05 355.808 1233.84 355.008C1234.62 354.192 1235.65 353.792 1236.88 353.792C1238.05 353.792 1239.01 354.208 1239.76 355.024C1240.51 355.84 1240.89 356.848 1240.89 358.016C1240.89 358.192 1240.88 358.432 1240.83 358.736ZM1234.45 357.328H1239.15C1238.91 356.032 1238 355.36 1236.86 355.36C1235.58 355.36 1234.69 356.112 1234.45 357.328ZM1246.17 357.904L1249.16 362H1247.16L1245.18 359.264L1243.18 362H1241.16L1244.17 357.888L1241.32 354H1243.32L1245.16 356.528L1247 354H1249.02L1246.17 357.904ZM1256.08 355.136V354H1257.81V362H1256.08V360.848C1255.42 361.76 1254.49 362.208 1253.28 362.208C1252.17 362.208 1251.25 361.808 1250.46 360.992C1249.68 360.176 1249.29 359.168 1249.29 358C1249.29 356.816 1249.68 355.824 1250.46 355.008C1251.25 354.192 1252.17 353.792 1253.28 353.792C1254.49 353.792 1255.42 354.24 1256.08 355.136ZM1251.74 359.84C1252.22 360.32 1252.83 360.56 1253.55 360.56C1254.27 360.56 1254.88 360.32 1255.36 359.84C1255.84 359.344 1256.08 358.736 1256.08 358C1256.08 357.264 1255.84 356.656 1255.36 356.176C1254.88 355.68 1254.27 355.44 1253.55 355.44C1252.83 355.44 1252.22 355.68 1251.74 356.176C1251.26 356.656 1251.02 357.264 1251.02 358C1251.02 358.736 1251.26 359.344 1251.74 359.84ZM1270.65 358.4V350.8H1272.49V362H1271.05L1265.77 354.4V362H1263.93V350.8H1265.37L1270.65 358.4ZM1282.35 358.736H1275.98C1276.23 359.952 1277.21 360.624 1278.54 360.624C1279.45 360.624 1280.14 360.288 1280.6 359.632L1282.03 360.464C1281.24 361.632 1280.07 362.208 1278.52 362.208C1277.23 362.208 1276.17 361.808 1275.37 361.024C1274.57 360.224 1274.17 359.216 1274.17 358C1274.17 356.8 1274.57 355.808 1275.35 355.008C1276.14 354.192 1277.16 353.792 1278.39 353.792C1279.56 353.792 1280.52 354.208 1281.27 355.024C1282.03 355.84 1282.41 356.848 1282.41 358.016C1282.41 358.192 1282.39 358.432 1282.35 358.736ZM1275.96 357.328H1280.67C1280.43 356.032 1279.51 355.36 1278.38 355.36C1277.1 355.36 1276.2 356.112 1275.96 357.328ZM1288.14 354V355.664H1286.16V359.504C1286.16 360.528 1286.83 360.512 1288.14 360.448V362C1285.5 362.32 1284.43 361.6 1284.43 359.504V355.664H1282.96V354H1284.43V352.272L1286.16 351.76V354H1288.14ZM1297.44 359.52L1299.01 354H1300.83L1298.32 362H1296.62L1294.96 356.608L1293.28 362H1291.58L1289.07 354H1290.89L1292.45 359.52L1294.13 354H1295.77L1297.44 359.52ZM1305.88 362.208C1304.71 362.208 1303.7 361.808 1302.89 360.992C1302.07 360.176 1301.65 359.184 1301.65 358C1301.65 356.816 1302.07 355.824 1302.89 355.008C1303.7 354.192 1304.71 353.792 1305.88 353.792C1307.06 353.792 1308.05 354.192 1308.87 355.008C1309.69 355.824 1310.1 356.816 1310.1 358C1310.1 359.184 1309.69 360.176 1308.87 360.992C1308.05 361.808 1307.06 362.208 1305.88 362.208ZM1304.1 359.808C1304.58 360.288 1305.17 360.528 1305.88 360.528C1306.58 360.528 1307.17 360.288 1307.65 359.808C1308.13 359.328 1308.37 358.72 1308.37 358C1308.37 357.28 1308.13 356.672 1307.65 356.192C1307.17 355.712 1306.58 355.472 1305.88 355.472C1305.17 355.472 1304.58 355.712 1304.1 356.192C1303.62 356.672 1303.38 357.28 1303.38 358C1303.38 358.72 1303.62 359.328 1304.1 359.808ZM1313.39 354V355.344C1313.82 354.352 1314.66 353.856 1315.86 353.856V355.728C1315.2 355.68 1314.62 355.84 1314.13 356.208C1313.63 356.56 1313.39 357.152 1313.39 357.968V362H1311.66V354H1313.39ZM1320.56 357.92L1324.2 362H1322.14L1318.86 358.304V362H1317.13V350.8H1318.86V357.536L1321.97 354H1324.08L1320.56 357.92Z" fill="white"/>
<path d="M1150.25 339.624C1145.21 339.624 1140.98 337.944 1137.67 334.632C1134.36 331.272 1132.68 327.144 1132.68 322.2C1132.68 317.256 1134.36 313.128 1137.67 309.816C1140.98 306.456 1145.21 304.776 1150.25 304.776C1156.34 304.776 1161.82 307.848 1164.7 312.792L1159.9 315.576C1158.12 312.264 1154.47 310.152 1150.25 310.152C1146.65 310.152 1143.77 311.304 1141.51 313.56C1139.3 315.816 1138.2 318.696 1138.2 322.2C1138.2 325.704 1139.3 328.584 1141.51 330.84C1143.77 333.096 1146.65 334.248 1150.25 334.248C1154.47 334.248 1158.17 332.136 1159.9 328.824L1164.7 331.56C1163.3 334.008 1161.29 335.976 1158.7 337.464C1156.15 338.904 1153.32 339.624 1150.25 339.624ZM1180.51 339.624C1177 339.624 1173.98 338.424 1171.53 335.976C1169.08 333.528 1167.84 330.552 1167.84 327C1167.84 323.448 1169.08 320.472 1171.53 318.024C1173.98 315.576 1177 314.376 1180.51 314.376C1184.06 314.376 1187.04 315.576 1189.48 318.024C1191.93 320.472 1193.18 323.448 1193.18 327C1193.18 330.552 1191.93 333.528 1189.48 335.976C1187.04 338.424 1184.06 339.624 1180.51 339.624ZM1175.18 332.424C1176.62 333.864 1178.4 334.584 1180.51 334.584C1182.62 334.584 1184.4 333.864 1185.84 332.424C1187.28 330.984 1188 329.16 1188 327C1188 324.84 1187.28 323.016 1185.84 321.576C1184.4 320.136 1182.62 319.416 1180.51 319.416C1178.4 319.416 1176.62 320.136 1175.18 321.576C1173.74 323.016 1173.02 324.84 1173.02 327C1173.02 329.16 1173.74 330.984 1175.18 332.424ZM1210.49 314.376C1216.01 314.376 1219.71 318.12 1219.71 324.264V339H1214.52V324.792C1214.52 321.192 1212.46 319.224 1209.15 319.224C1205.5 319.224 1203.05 321.48 1203.05 326.136V339H1197.87V315H1203.05V318.072C1204.64 315.624 1207.08 314.376 1210.49 314.376ZM1237.91 314.376C1243.43 314.376 1247.13 318.12 1247.13 324.264V339H1241.95V324.792C1241.95 321.192 1239.88 319.224 1236.57 319.224C1232.92 319.224 1230.47 321.48 1230.47 326.136V339H1225.29V315H1230.47V318.072C1232.06 315.624 1234.51 314.376 1237.91 314.376ZM1275.9 329.208H1256.79C1257.56 332.856 1260.49 334.872 1264.47 334.872C1267.21 334.872 1269.27 333.864 1270.66 331.896L1274.94 334.392C1272.58 337.896 1269.08 339.624 1264.42 339.624C1260.54 339.624 1257.37 338.424 1254.97 336.072C1252.57 333.672 1251.37 330.648 1251.37 327C1251.37 323.4 1252.57 320.424 1254.92 318.024C1257.27 315.576 1260.34 314.376 1264.04 314.376C1267.54 314.376 1270.42 315.624 1272.68 318.072C1274.94 320.52 1276.09 323.544 1276.09 327.048C1276.09 327.576 1276.04 328.296 1275.9 329.208ZM1256.74 324.984H1270.86C1270.14 321.096 1267.4 319.08 1263.99 319.08C1260.15 319.08 1257.46 321.336 1256.74 324.984ZM1291.98 339.624C1288.38 339.624 1285.35 338.424 1282.91 335.976C1280.51 333.528 1279.31 330.552 1279.31 327C1279.31 323.4 1280.51 320.424 1282.91 318.024C1285.35 315.576 1288.38 314.376 1291.98 314.376C1296.63 314.376 1300.76 316.776 1302.68 320.568L1298.22 323.16C1297.11 320.856 1294.81 319.464 1291.93 319.464C1289.82 319.464 1288.04 320.184 1286.6 321.624C1285.21 323.064 1284.49 324.84 1284.49 327C1284.49 329.16 1285.21 330.936 1286.6 332.376C1288.04 333.816 1289.82 334.536 1291.93 334.536C1294.76 334.536 1297.16 333.096 1298.31 330.84L1302.78 333.384C1300.71 337.224 1296.63 339.624 1291.98 339.624ZM1319.92 315V319.992H1313.96V331.512C1313.96 334.584 1315.98 334.536 1319.92 334.344V339C1312 339.96 1308.78 337.8 1308.78 331.512V319.992H1304.36V315H1308.78V309.816L1313.96 308.28V315H1319.92Z" fill="#FFF3AF"/>
<circle cx="1316.5" cy="378.5" r="5.5" fill="white"/>
<path d="M451.308 400.628C451.308 403.182 450.293 405.631 448.487 407.437C446.682 409.242 444.233 410.257 441.679 410.257C439.126 410.257 436.677 409.242 434.871 407.437C433.065 405.631 432.051 403.182 432.051 400.628C432.051 398.075 433.065 395.626 434.871 393.82C436.677 392.014 439.126 391 441.679 391C444.233 391 446.682 392.014 448.487 393.82C450.293 395.626 451.308 398.075 451.308 400.628ZM448.299 400.605C448.299 399.736 448.128 398.876 447.796 398.074C447.463 397.271 446.976 396.542 446.362 395.928C445.748 395.314 445.019 394.827 444.216 394.494C443.414 394.162 442.554 393.991 441.685 393.991C440.817 393.991 439.956 394.162 439.154 394.494C438.352 394.827 437.622 395.314 437.008 395.928C436.394 396.542 435.907 397.271 435.575 398.074C435.242 398.876 435.071 399.736 435.071 400.605C435.071 402.359 435.768 404.041 437.008 405.282C438.249 406.522 439.931 407.219 441.685 407.219C443.439 407.219 445.122 406.522 446.362 405.282C447.602 404.041 448.299 402.359 448.299 400.605Z" fill="#FBFBFF"/>
<path d="M438.429 422.007C438.429 424.509 437.435 426.908 435.666 428.677C433.897 430.447 431.498 431.44 428.996 431.44C426.494 431.44 424.095 430.447 422.325 428.677C420.556 426.908 419.562 424.509 419.562 422.007C419.562 419.505 420.556 417.106 422.325 415.337C424.095 413.568 426.494 412.574 428.996 412.574C431.498 412.574 433.897 413.568 435.666 415.337C437.435 417.106 438.429 419.505 438.429 422.007ZM435.487 421.571C435.366 419.889 434.567 418.324 433.264 417.222C431.962 416.12 430.263 415.57 428.541 415.693C427.689 415.754 426.856 415.979 426.092 416.354C425.327 416.729 424.645 417.248 424.085 417.88C423.524 418.512 423.096 419.246 422.825 420.039C422.554 420.832 422.445 421.669 422.505 422.502C422.626 424.184 423.425 425.749 424.728 426.851C426.03 427.954 427.729 428.504 429.451 428.38C430.303 428.319 431.135 428.095 431.9 427.719C432.665 427.344 433.347 426.825 433.907 426.193C434.468 425.561 434.896 424.827 435.167 424.034C435.438 423.241 435.547 422.404 435.487 421.571Z" fill="#FBFBFF"/>
<path d="M464.548 422.037C464.548 424.539 463.555 426.938 461.785 428.707C460.016 430.476 457.617 431.47 455.115 431.47C452.613 431.47 450.214 430.476 448.445 428.707C446.675 426.938 445.682 424.539 445.682 422.037C445.682 419.535 446.675 417.136 448.445 415.366C450.214 413.597 452.613 412.604 455.115 412.604C457.617 412.604 460.016 413.597 461.785 415.366C463.555 417.136 464.548 419.535 464.548 422.037ZM461.528 422.078C461.528 420.373 460.85 418.737 459.644 417.531C458.438 416.325 456.803 415.647 455.097 415.647C453.392 415.647 451.756 416.325 450.55 417.531C449.344 418.737 448.666 420.373 448.666 422.078C448.666 423.784 449.344 425.419 450.55 426.625C451.756 427.831 453.392 428.509 455.097 428.509C456.803 428.509 458.438 427.831 459.644 426.625C460.85 425.419 461.528 423.784 461.528 422.078Z" fill="#FBFBFF"/>
<path d="M1082.79 677.905C1082.79 678.637 1083.08 679.339 1083.6 679.857C1084.12 680.374 1084.82 680.665 1085.55 680.665C1086.28 680.665 1086.98 680.374 1087.5 679.857C1088.02 679.339 1088.31 678.637 1088.31 677.905C1088.31 677.173 1088.02 676.471 1087.5 675.953C1086.98 675.436 1086.28 675.145 1085.55 675.145C1084.82 675.145 1084.12 675.436 1083.6 675.953C1083.08 676.471 1082.79 677.173 1082.79 677.905Z" fill="#FBFBFF"/>
<path d="M1062.14 677.835C1062.14 678.57 1062.43 679.274 1062.95 679.794C1063.47 680.313 1064.18 680.605 1064.91 680.605C1065.64 680.605 1066.35 680.313 1066.87 679.794C1067.39 679.274 1067.68 678.57 1067.68 677.835C1067.68 677.1 1067.39 676.396 1066.87 675.876C1066.35 675.357 1065.64 675.065 1064.91 675.065C1064.18 675.065 1063.47 675.357 1062.95 675.876C1062.43 676.396 1062.14 677.1 1062.14 677.835Z" fill="#FBFBFF"/>
<path d="M1041.3 677.895C1041.3 678.627 1041.59 679.329 1042.11 679.847C1042.63 680.365 1043.33 680.655 1044.06 680.655C1044.79 680.655 1045.49 680.365 1046.01 679.847C1046.53 679.329 1046.82 678.627 1046.82 677.895C1046.82 677.163 1046.53 676.461 1046.01 675.944C1045.49 675.426 1044.79 675.135 1044.06 675.135C1043.33 675.135 1042.63 675.426 1042.11 675.944C1041.59 676.461 1041.3 677.163 1041.3 677.895Z" fill="#FBFBFF"/>
<path d="M1020.62 677.945C1020.62 678.674 1020.91 679.374 1021.42 679.889C1021.94 680.405 1022.64 680.695 1023.37 680.695C1024.1 680.695 1024.8 680.405 1025.31 679.889C1025.83 679.374 1026.12 678.674 1026.12 677.945C1026.12 677.215 1025.83 676.516 1025.31 676C1024.8 675.485 1024.1 675.195 1023.37 675.195C1022.64 675.195 1021.94 675.485 1021.42 676C1020.91 676.516 1020.62 677.215 1020.62 677.945Z" fill="#FBFBFF"/>
<path d="M999.641 677.895C999.641 678.261 999.713 678.624 999.853 678.963C999.993 679.301 1000.2 679.609 1000.46 679.868C1000.72 680.127 1001.02 680.332 1001.36 680.473C1001.7 680.613 1002.06 680.685 1002.43 680.685C1003.17 680.685 1003.88 680.391 1004.4 679.868C1004.93 679.345 1005.22 678.635 1005.22 677.895C1005.22 677.155 1004.93 676.445 1004.4 675.922C1003.88 675.399 1003.17 675.105 1002.43 675.105C1002.06 675.105 1001.7 675.177 1001.36 675.317C1001.02 675.458 1000.72 675.663 1000.46 675.922C1000.2 676.181 999.993 676.489 999.853 676.827C999.713 677.166 999.641 677.529 999.641 677.895Z" fill="#FBFBFF"/>
<path d="M978.969 677.925C978.969 678.662 979.262 679.37 979.784 679.891C980.305 680.412 981.012 680.705 981.749 680.705C982.487 680.705 983.194 680.412 983.715 679.891C984.236 679.37 984.529 678.662 984.529 677.925C984.529 677.188 984.236 676.481 983.715 675.959C983.194 675.438 982.487 675.145 981.749 675.145C981.012 675.145 980.305 675.438 979.784 675.959C979.262 676.481 978.969 677.188 978.969 677.925Z" fill="#FBFBFF"/>
<path d="M1092.68 666.405C1092.68 667.15 1092.97 667.865 1093.5 668.392C1094.03 668.919 1094.74 669.215 1095.49 669.215C1096.23 669.215 1096.95 668.919 1097.48 668.392C1098 667.865 1098.3 667.15 1098.3 666.405C1098.3 665.66 1098 664.945 1097.48 664.418C1096.95 663.891 1096.23 663.595 1095.49 663.595C1094.74 663.595 1094.03 663.891 1093.5 664.418C1092.97 664.945 1092.68 665.66 1092.68 666.405Z" fill="#FBFBFF"/>
<path d="M1072.2 666.375C1072.2 667.123 1072.5 667.84 1073.03 668.369C1073.55 668.898 1074.27 669.195 1075.02 669.195C1075.77 669.195 1076.49 668.898 1077.01 668.369C1077.54 667.84 1077.84 667.123 1077.84 666.375C1077.84 666.005 1077.77 665.638 1077.63 665.296C1077.48 664.954 1077.28 664.643 1077.01 664.381C1076.75 664.119 1076.44 663.912 1076.1 663.77C1075.76 663.628 1075.39 663.555 1075.02 663.555C1074.65 663.555 1074.28 663.628 1073.94 663.77C1073.6 663.912 1073.29 664.119 1073.03 664.381C1072.76 664.643 1072.56 664.954 1072.41 665.296C1072.27 665.638 1072.2 666.005 1072.2 666.375Z" fill="#FBFBFF"/>
<path d="M1051.59 666.295C1051.59 667.035 1051.88 667.745 1052.41 668.268C1052.93 668.791 1053.64 669.085 1054.38 669.085C1054.75 669.085 1055.11 669.013 1055.45 668.873C1055.79 668.732 1056.09 668.527 1056.35 668.268C1056.61 668.009 1056.82 667.701 1056.96 667.363C1057.1 667.024 1057.17 666.661 1057.17 666.295C1057.17 665.929 1057.1 665.566 1056.96 665.227C1056.82 664.889 1056.61 664.581 1056.35 664.322C1056.09 664.063 1055.79 663.858 1055.45 663.717C1055.11 663.577 1054.75 663.505 1054.38 663.505C1053.64 663.505 1052.93 663.799 1052.41 664.322C1051.88 664.845 1051.59 665.555 1051.59 666.295Z" fill="#FBFBFF"/>
<path d="M1030.81 666.395C1030.81 667.133 1031.1 667.84 1031.62 668.361C1032.14 668.882 1032.85 669.175 1033.59 669.175C1034.33 669.175 1035.03 668.882 1035.55 668.361C1036.08 667.84 1036.37 667.133 1036.37 666.395C1036.37 665.658 1036.08 664.951 1035.55 664.43C1035.03 663.908 1034.33 663.615 1033.59 663.615C1032.85 663.615 1032.14 663.908 1031.62 664.43C1031.1 664.951 1030.81 665.658 1030.81 666.395Z" fill="#FBFBFF"/>
<path d="M968 666.375C968 667.118 968.295 667.83 968.82 668.355C969.345 668.88 970.057 669.175 970.8 669.175C971.542 669.175 972.254 668.88 972.779 668.355C973.305 667.83 973.6 667.118 973.6 666.375C973.6 665.633 973.305 664.92 972.779 664.395C972.254 663.87 971.542 663.575 970.8 663.575C970.057 663.575 969.345 663.87 968.82 664.395C968.295 664.92 968 665.633 968 666.375Z" fill="#FBFBFF"/>
<path d="M1010.08 666.345C1010.08 667.072 1010.37 667.769 1010.88 668.282C1011.4 668.796 1012.09 669.085 1012.82 669.085C1013.55 669.085 1014.24 668.796 1014.76 668.282C1015.27 667.769 1015.56 667.072 1015.56 666.345C1015.56 665.618 1015.27 664.921 1014.76 664.408C1014.24 663.894 1013.55 663.605 1012.82 663.605C1012.09 663.605 1011.4 663.894 1010.88 664.408C1010.37 664.921 1010.08 665.618 1010.08 666.345Z" fill="#FBFBFF"/>
<path d="M989.119 666.345C989.119 667.077 989.409 667.779 989.927 668.297C990.445 668.814 991.147 669.105 991.879 669.105C992.611 669.105 993.313 668.814 993.83 668.297C994.348 667.779 994.639 667.077 994.639 666.345C994.639 665.613 994.348 664.911 993.83 664.393C993.313 663.876 992.611 663.585 991.879 663.585C991.147 663.585 990.445 663.876 989.927 664.393C989.409 664.911 989.119 665.613 989.119 666.345Z" fill="#FBFBFF"/>
<path d="M1103 655.415C1103 656.147 1103.29 656.849 1103.81 657.366C1104.33 657.884 1105.03 658.175 1105.76 658.175C1106.49 658.175 1107.19 657.884 1107.71 657.366C1108.23 656.849 1108.52 656.147 1108.52 655.415C1108.52 654.683 1108.23 653.981 1107.71 653.463C1107.19 652.946 1106.49 652.655 1105.76 652.655C1105.03 652.655 1104.33 652.946 1103.81 653.463C1103.29 653.981 1103 654.683 1103 655.415Z" fill="#FBFBFF"/>
<path d="M1082.47 655.295C1082.47 656.033 1082.76 656.74 1083.28 657.261C1083.8 657.782 1084.51 658.075 1085.25 658.075C1085.99 658.075 1086.69 657.782 1087.22 657.261C1087.74 656.74 1088.03 656.033 1088.03 655.295C1088.03 654.558 1087.74 653.851 1087.22 653.329C1086.69 652.808 1085.99 652.515 1085.25 652.515C1084.51 652.515 1083.8 652.808 1083.28 653.329C1082.76 653.851 1082.47 654.558 1082.47 655.295Z" fill="#FBFBFF"/>
<path d="M1062.01 655.225C1062.01 655.59 1062.08 655.951 1062.22 656.289C1062.36 656.626 1062.57 656.932 1062.82 657.191C1063.08 657.449 1063.39 657.654 1063.73 657.793C1064.06 657.933 1064.43 658.005 1064.79 658.005C1065.53 658.005 1066.23 657.712 1066.76 657.191C1067.28 656.669 1067.57 655.962 1067.57 655.225C1067.57 654.488 1067.28 653.78 1066.76 653.259C1066.23 652.738 1065.53 652.445 1064.79 652.445C1064.43 652.445 1064.06 652.517 1063.73 652.656C1063.39 652.796 1063.08 653.001 1062.82 653.259C1062.57 653.517 1062.36 653.824 1062.22 654.161C1062.08 654.498 1062.01 654.86 1062.01 655.225Z" fill="#FBFBFF"/>
<path d="M1041.27 655.225C1041.27 655.59 1041.34 655.952 1041.48 656.289C1041.62 656.626 1041.83 656.933 1042.08 657.191C1042.34 657.449 1042.65 657.654 1042.99 657.794C1043.32 657.933 1043.69 658.005 1044.05 658.005C1044.79 658.005 1045.49 657.712 1046.02 657.191C1046.54 656.67 1046.83 655.963 1046.83 655.225C1046.83 654.488 1046.54 653.781 1046.02 653.26C1045.49 652.738 1044.79 652.445 1044.05 652.445C1043.69 652.445 1043.32 652.517 1042.99 652.657C1042.65 652.797 1042.34 653.001 1042.08 653.26C1041.83 653.518 1041.62 653.824 1041.48 654.161C1041.34 654.499 1041.27 654.86 1041.27 655.225Z" fill="#FBFBFF"/>
<path d="M1020.46 655.285C1020.46 656.015 1020.75 656.714 1021.26 657.23C1021.78 657.745 1022.48 658.035 1023.21 658.035C1023.94 658.035 1024.64 657.745 1025.15 657.23C1025.67 656.714 1025.96 656.015 1025.96 655.285C1025.96 654.556 1025.67 653.856 1025.15 653.341C1024.64 652.825 1023.94 652.535 1023.21 652.535C1022.48 652.535 1021.78 652.825 1021.26 653.341C1020.75 653.856 1020.46 654.556 1020.46 655.285Z" fill="#FBFBFF"/>
<path d="M999.59 655.285C999.59 656.012 999.879 656.709 1000.39 657.222C1000.91 657.736 1001.6 658.025 1002.33 658.025C1003.06 658.025 1003.75 657.736 1004.27 657.222C1004.78 656.709 1005.07 656.012 1005.07 655.285C1005.07 654.558 1004.78 653.861 1004.27 653.347C1003.75 652.834 1003.06 652.545 1002.33 652.545C1001.6 652.545 1000.91 652.834 1000.39 653.347C999.879 653.861 999.59 654.558 999.59 655.285Z" fill="#FBFBFF"/>
<path d="M978.869 655.255C978.869 655.977 979.155 656.668 979.665 657.178C980.175 657.689 980.867 657.975 981.589 657.975C982.31 657.975 983.002 657.689 983.512 657.178C984.022 656.668 984.309 655.977 984.309 655.255C984.309 654.534 984.022 653.842 983.512 653.332C983.002 652.822 982.31 652.535 981.589 652.535C980.867 652.535 980.175 652.822 979.665 653.332C979.155 653.842 978.869 654.534 978.869 655.255Z" fill="#FBFBFF"/>
<path d="M1092.55 643.725C1092.55 644.449 1092.84 645.144 1093.35 645.656C1093.86 646.167 1094.56 646.455 1095.28 646.455C1096 646.455 1096.7 646.167 1097.21 645.656C1097.72 645.144 1098.01 644.449 1098.01 643.725C1098.01 643.001 1097.72 642.307 1097.21 641.795C1096.7 641.283 1096 640.995 1095.28 640.995C1094.56 640.995 1093.86 641.283 1093.35 641.795C1092.84 642.307 1092.55 643.001 1092.55 643.725Z" fill="#FBFBFF"/>
<path d="M1072.13 643.675C1072.13 644.035 1072.2 644.391 1072.34 644.724C1072.48 645.056 1072.68 645.358 1072.93 645.612C1073.19 645.867 1073.49 646.069 1073.82 646.206C1074.15 646.344 1074.51 646.415 1074.87 646.415C1075.23 646.415 1075.59 646.344 1075.92 646.206C1076.25 646.069 1076.55 645.867 1076.81 645.612C1077.06 645.358 1077.26 645.056 1077.4 644.724C1077.54 644.391 1077.61 644.035 1077.61 643.675C1077.61 642.948 1077.32 642.251 1076.81 641.738C1076.29 641.224 1075.6 640.935 1074.87 640.935C1074.14 640.935 1073.45 641.224 1072.93 641.738C1072.42 642.251 1072.13 642.948 1072.13 643.675Z" fill="#FBFBFF"/>
<path d="M1051.63 643.635C1051.63 644.364 1051.92 645.064 1052.43 645.579C1052.95 646.095 1053.65 646.385 1054.38 646.385C1055.11 646.385 1055.81 646.095 1056.32 645.579C1056.84 645.064 1057.13 644.364 1057.13 643.635C1057.13 642.905 1056.84 642.206 1056.32 641.69C1055.81 641.175 1055.11 640.885 1054.38 640.885C1053.65 640.885 1052.95 641.175 1052.43 641.69C1051.92 642.206 1051.63 642.905 1051.63 643.635Z" fill="#FBFBFF"/>
<path d="M1030.81 643.595C1030.81 644.311 1031.09 644.998 1031.6 645.504C1032.11 646.01 1032.79 646.295 1033.51 646.295C1034.23 646.295 1034.91 646.01 1035.42 645.504C1035.92 644.998 1036.21 644.311 1036.21 643.595C1036.21 642.879 1035.92 642.192 1035.42 641.686C1034.91 641.179 1034.23 640.895 1033.51 640.895C1032.79 640.895 1032.11 641.179 1031.6 641.686C1031.09 642.192 1030.81 642.879 1030.81 643.595Z" fill="#FBFBFF"/>
<path d="M1010.09 643.555C1010.09 644.269 1010.37 644.953 1010.88 645.457C1011.38 645.962 1012.07 646.245 1012.78 646.245C1013.49 646.245 1014.18 645.962 1014.68 645.457C1015.19 644.953 1015.47 644.269 1015.47 643.555C1015.47 642.842 1015.19 642.157 1014.68 641.653C1014.18 641.148 1013.49 640.865 1012.78 640.865C1012.07 640.865 1011.38 641.148 1010.88 641.653C1010.37 642.157 1010.09 642.842 1010.09 643.555Z" fill="#FBFBFF"/>
<path d="M989.269 643.625C989.269 643.976 989.338 644.323 989.473 644.647C989.607 644.971 989.803 645.265 990.051 645.513C990.299 645.761 990.594 645.957 990.918 646.092C991.242 646.226 991.589 646.295 991.939 646.295C992.648 646.295 993.327 646.014 993.827 645.513C994.328 645.012 994.609 644.333 994.609 643.625C994.609 642.917 994.328 642.238 993.827 641.737C993.327 641.236 992.648 640.955 991.939 640.955C991.589 640.955 991.242 641.024 990.918 641.158C990.594 641.292 990.299 641.489 990.051 641.737C989.803 641.985 989.607 642.279 989.473 642.603C989.338 642.927 989.269 643.274 989.269 643.625Z" fill="#FBFBFF"/>
<path d="M1087.2 632.407C1086.8 632.088 1086.27 631.97 1085.72 632.081C1085.17 632.192 1084.64 632.523 1084.26 632.999C1083.87 633.476 1083.66 634.06 1083.67 634.624C1083.68 635.187 1083.9 635.683 1084.3 636.003C1084.7 636.323 1085.23 636.44 1085.78 636.329C1086.33 636.218 1086.86 635.888 1087.24 635.411C1087.63 634.934 1087.84 634.35 1087.83 633.786C1087.82 633.223 1087.6 632.727 1087.2 632.407Z" fill="#FBFBFF"/>
<path d="M1067.05 632.388C1066.86 632.225 1066.63 632.11 1066.37 632.05C1066.12 631.989 1065.85 631.984 1065.57 632.035C1065.3 632.085 1065.02 632.191 1064.76 632.345C1064.5 632.5 1064.27 632.7 1064.07 632.935C1063.87 633.17 1063.71 633.434 1063.59 633.713C1063.48 633.992 1063.42 634.281 1063.41 634.562C1063.41 634.843 1063.45 635.111 1063.55 635.352C1063.65 635.592 1063.8 635.799 1063.99 635.962C1064.18 636.125 1064.41 636.24 1064.67 636.301C1064.92 636.362 1065.19 636.367 1065.47 636.316C1065.74 636.265 1066.02 636.16 1066.28 636.005C1066.54 635.851 1066.77 635.65 1066.97 635.416C1067.17 635.181 1067.33 634.917 1067.45 634.637C1067.56 634.358 1067.62 634.07 1067.63 633.789C1067.63 633.508 1067.59 633.239 1067.49 632.999C1067.39 632.759 1067.24 632.551 1067.05 632.388Z" fill="#FBFBFF"/>
<path d="M1046.08 632.382C1045.68 632.062 1045.15 631.945 1044.6 632.057C1044.04 632.169 1043.52 632.5 1043.13 632.978C1042.75 633.457 1042.54 634.042 1042.55 634.607C1042.57 635.171 1042.8 635.668 1043.2 635.988C1043.59 636.308 1044.13 636.425 1044.68 636.313C1045.24 636.201 1045.76 635.87 1046.15 635.392C1046.53 634.914 1046.74 634.328 1046.73 633.764C1046.71 633.199 1046.48 632.702 1046.08 632.382Z" fill="#FBFBFF"/>
<path d="M1004.4 632.651C1004.23 632.475 1004.02 632.341 1003.78 632.258C1003.54 632.174 1003.28 632.142 1003.01 632.163C1002.74 632.184 1002.47 632.257 1002.21 632.38C1001.95 632.503 1001.7 632.671 1001.49 632.877C1001.07 633.292 1000.8 633.831 1000.74 634.375C1000.69 634.919 1000.85 635.425 1001.2 635.78C1001.37 635.955 1001.58 636.089 1001.82 636.173C1002.06 636.256 1002.32 636.289 1002.59 636.268C1002.86 636.247 1003.13 636.173 1003.39 636.05C1003.65 635.928 1003.89 635.759 1004.11 635.553C1004.53 635.139 1004.8 634.6 1004.86 634.055C1004.91 633.511 1004.75 633.006 1004.4 632.651Z" fill="#FBFBFF"/>
<path d="M1025.34 632.488C1025.17 632.329 1024.95 632.216 1024.71 632.154C1024.47 632.092 1024.21 632.082 1023.95 632.126C1023.68 632.17 1023.42 632.266 1023.17 632.409C1022.92 632.552 1022.69 632.739 1022.5 632.959C1022.3 633.18 1022.14 633.429 1022.03 633.693C1021.92 633.957 1021.86 634.231 1021.85 634.499C1021.84 634.767 1021.88 635.023 1021.97 635.254C1022.06 635.484 1022.2 635.685 1022.38 635.843C1022.55 636.001 1022.77 636.115 1023.01 636.177C1023.25 636.239 1023.51 636.248 1023.77 636.204C1024.04 636.161 1024.3 636.064 1024.55 635.921C1024.8 635.779 1025.03 635.592 1025.22 635.371C1025.42 635.151 1025.58 634.902 1025.69 634.637C1025.8 634.373 1025.86 634.099 1025.87 633.832C1025.88 633.564 1025.84 633.307 1025.75 633.077C1025.66 632.846 1025.52 632.646 1025.34 632.488Z" fill="#FBFBFF"/>
<path d="M1082.79 677.905C1082.79 677.173 1083.08 676.471 1083.6 675.953C1084.12 675.436 1084.82 675.145 1085.55 675.145C1086.28 675.145 1086.98 675.436 1087.5 675.953C1088.02 676.471 1088.31 677.173 1088.31 677.905C1088.31 678.637 1088.02 679.339 1087.5 679.857C1086.98 680.374 1086.28 680.665 1085.55 680.665C1084.82 680.665 1084.12 680.374 1083.6 679.857C1083.08 679.339 1082.79 678.637 1082.79 677.905Z" fill="#FBFBFF"/>
<path d="M1062.14 677.835C1062.14 677.1 1062.43 676.396 1062.95 675.876C1063.47 675.357 1064.18 675.065 1064.91 675.065C1065.64 675.065 1066.35 675.357 1066.87 675.876C1067.39 676.396 1067.68 677.1 1067.68 677.835C1067.68 678.57 1067.39 679.274 1066.87 679.794C1066.35 680.313 1065.64 680.605 1064.91 680.605C1064.18 680.605 1063.47 680.313 1062.95 679.794C1062.43 679.274 1062.14 678.57 1062.14 677.835Z" fill="#FBFBFF"/>
<path d="M1041.3 677.895C1041.3 677.163 1041.59 676.461 1042.11 675.944C1042.63 675.426 1043.33 675.135 1044.06 675.135C1044.79 675.135 1045.49 675.426 1046.01 675.944C1046.53 676.461 1046.82 677.163 1046.82 677.895C1046.82 678.627 1046.53 679.329 1046.01 679.847C1045.49 680.365 1044.79 680.655 1044.06 680.655C1043.33 680.655 1042.63 680.365 1042.11 679.847C1041.59 679.329 1041.3 678.627 1041.3 677.895Z" fill="#FBFBFF"/>
<path d="M1020.62 677.945C1020.62 677.215 1020.91 676.516 1021.42 676C1021.94 675.485 1022.64 675.195 1023.37 675.195C1024.1 675.195 1024.8 675.485 1025.31 676C1025.83 676.516 1026.12 677.215 1026.12 677.945C1026.12 678.674 1025.83 679.374 1025.31 679.889C1024.8 680.405 1024.1 680.695 1023.37 680.695C1022.64 680.695 1021.94 680.405 1021.42 679.889C1020.91 679.374 1020.62 678.674 1020.62 677.945Z" fill="#FBFBFF"/>
<path d="M999.641 677.895C999.641 677.529 999.713 677.166 999.853 676.827C999.993 676.489 1000.2 676.181 1000.46 675.922C1000.72 675.663 1001.02 675.458 1001.36 675.317C1001.7 675.177 1002.06 675.105 1002.43 675.105C1003.17 675.105 1003.88 675.399 1004.4 675.922C1004.93 676.445 1005.22 677.155 1005.22 677.895C1005.22 678.635 1004.93 679.345 1004.4 679.868C1003.88 680.391 1003.17 680.685 1002.43 680.685C1002.06 680.685 1001.7 680.613 1001.36 680.473C1001.02 680.332 1000.72 680.127 1000.46 679.868C1000.2 679.609 999.993 679.301 999.853 678.963C999.713 678.624 999.641 678.261 999.641 677.895Z" fill="#FBFBFF"/>
<path d="M978.969 677.925C978.969 677.188 979.262 676.481 979.784 675.959C980.305 675.438 981.012 675.145 981.749 675.145C982.487 675.145 983.194 675.438 983.715 675.959C984.236 676.481 984.529 677.188 984.529 677.925C984.529 678.662 984.236 679.37 983.715 679.891C983.194 680.412 982.487 680.705 981.749 680.705C981.012 680.705 980.305 680.412 979.784 679.891C979.262 679.37 978.969 678.662 978.969 677.925Z" fill="#FBFBFF"/>
<path d="M1092.68 666.405C1092.68 665.66 1092.97 664.945 1093.5 664.418C1094.03 663.891 1094.74 663.595 1095.49 663.595C1096.23 663.595 1096.95 663.891 1097.48 664.418C1098 664.945 1098.3 665.66 1098.3 666.405C1098.3 667.15 1098 667.865 1097.48 668.392C1096.95 668.919 1096.23 669.215 1095.49 669.215C1094.74 669.215 1094.03 668.919 1093.5 668.392C1092.97 667.865 1092.68 667.15 1092.68 666.405Z" fill="#FBFBFF"/>
<path d="M1072.2 666.375C1072.2 666.005 1072.27 665.638 1072.41 665.296C1072.56 664.954 1072.76 664.643 1073.03 664.381C1073.29 664.119 1073.6 663.912 1073.94 663.77C1074.28 663.628 1074.65 663.555 1075.02 663.555C1075.39 663.555 1075.76 663.628 1076.1 663.77C1076.44 663.912 1076.75 664.119 1077.01 664.381C1077.28 664.643 1077.48 664.954 1077.63 665.296C1077.77 665.638 1077.84 666.005 1077.84 666.375C1077.84 667.123 1077.54 667.84 1077.01 668.369C1076.49 668.898 1075.77 669.195 1075.02 669.195C1074.27 669.195 1073.55 668.898 1073.03 668.369C1072.5 667.84 1072.2 667.123 1072.2 666.375Z" fill="#FBFBFF"/>
<path d="M1051.59 666.295C1051.59 665.555 1051.88 664.845 1052.41 664.322C1052.93 663.799 1053.64 663.505 1054.38 663.505C1054.75 663.505 1055.11 663.577 1055.45 663.717C1055.79 663.858 1056.09 664.063 1056.35 664.322C1056.61 664.581 1056.82 664.889 1056.96 665.227C1057.1 665.566 1057.17 665.929 1057.17 666.295C1057.17 666.661 1057.1 667.024 1056.96 667.363C1056.82 667.701 1056.61 668.009 1056.35 668.268C1056.09 668.527 1055.79 668.732 1055.45 668.873C1055.11 669.013 1054.75 669.085 1054.38 669.085C1053.64 669.085 1052.93 668.791 1052.41 668.268C1051.88 667.745 1051.59 667.035 1051.59 666.295Z" fill="#FBFBFF"/>
<path d="M1030.81 666.395C1030.81 665.658 1031.1 664.951 1031.62 664.43C1032.14 663.908 1032.85 663.615 1033.59 663.615C1034.33 663.615 1035.03 663.908 1035.55 664.43C1036.08 664.951 1036.37 665.658 1036.37 666.395C1036.37 667.133 1036.08 667.84 1035.55 668.361C1035.03 668.882 1034.33 669.175 1033.59 669.175C1032.85 669.175 1032.14 668.882 1031.62 668.361C1031.1 667.84 1030.81 667.133 1030.81 666.395Z" fill="#FBFBFF"/>
<path d="M968 666.375C968 665.633 968.295 664.92 968.82 664.395C969.345 663.87 970.057 663.575 970.8 663.575C971.542 663.575 972.254 663.87 972.779 664.395C973.305 664.92 973.6 665.633 973.6 666.375C973.6 667.118 973.305 667.83 972.779 668.355C972.254 668.88 971.542 669.175 970.8 669.175C970.057 669.175 969.345 668.88 968.82 668.355C968.295 667.83 968 667.118 968 666.375Z" fill="#FBFBFF"/>
<path d="M1010.08 666.345C1010.08 665.618 1010.37 664.921 1010.88 664.408C1011.4 663.894 1012.09 663.605 1012.82 663.605C1013.55 663.605 1014.24 663.894 1014.76 664.408C1015.27 664.921 1015.56 665.618 1015.56 666.345C1015.56 667.072 1015.27 667.769 1014.76 668.282C1014.24 668.796 1013.55 669.085 1012.82 669.085C1012.09 669.085 1011.4 668.796 1010.88 668.282C1010.37 667.769 1010.08 667.072 1010.08 666.345Z" fill="#FBFBFF"/>
<path d="M989.119 666.345C989.119 665.613 989.409 664.911 989.927 664.393C990.445 663.876 991.147 663.585 991.879 663.585C992.611 663.585 993.313 663.876 993.83 664.393C994.348 664.911 994.639 665.613 994.639 666.345C994.639 667.077 994.348 667.779 993.83 668.297C993.313 668.814 992.611 669.105 991.879 669.105C991.147 669.105 990.445 668.814 989.927 668.297C989.409 667.779 989.119 667.077 989.119 666.345Z" fill="#FBFBFF"/>
<path d="M1103 655.415C1103 654.683 1103.29 653.981 1103.81 653.463C1104.33 652.946 1105.03 652.655 1105.76 652.655C1106.49 652.655 1107.19 652.946 1107.71 653.463C1108.23 653.981 1108.52 654.683 1108.52 655.415C1108.52 656.147 1108.23 656.849 1107.71 657.366C1107.19 657.884 1106.49 658.175 1105.76 658.175C1105.03 658.175 1104.33 657.884 1103.81 657.366C1103.29 656.849 1103 656.147 1103 655.415Z" fill="#FBFBFF"/>
<path d="M1082.47 655.295C1082.47 654.558 1082.76 653.851 1083.28 653.329C1083.8 652.808 1084.51 652.515 1085.25 652.515C1085.99 652.515 1086.69 652.808 1087.22 653.329C1087.74 653.851 1088.03 654.558 1088.03 655.295C1088.03 656.033 1087.74 656.74 1087.22 657.261C1086.69 657.782 1085.99 658.075 1085.25 658.075C1084.51 658.075 1083.8 657.782 1083.28 657.261C1082.76 656.74 1082.47 656.033 1082.47 655.295Z" fill="#FBFBFF"/>
<path d="M1062.01 655.225C1062.01 654.86 1062.08 654.498 1062.22 654.161C1062.36 653.824 1062.57 653.517 1062.82 653.259C1063.08 653.001 1063.39 652.796 1063.73 652.656C1064.06 652.517 1064.43 652.445 1064.79 652.445C1065.53 652.445 1066.23 652.738 1066.76 653.259C1067.28 653.78 1067.57 654.488 1067.57 655.225C1067.57 655.962 1067.28 656.669 1066.76 657.191C1066.23 657.712 1065.53 658.005 1064.79 658.005C1064.43 658.005 1064.06 657.933 1063.73 657.793C1063.39 657.654 1063.08 657.449 1062.82 657.191C1062.57 656.932 1062.36 656.626 1062.22 656.289C1062.08 655.951 1062.01 655.59 1062.01 655.225Z" fill="#FBFBFF"/>
<path d="M1041.27 655.225C1041.27 654.86 1041.34 654.499 1041.48 654.161C1041.62 653.824 1041.83 653.518 1042.08 653.26C1042.34 653.001 1042.65 652.797 1042.99 652.657C1043.32 652.517 1043.69 652.445 1044.05 652.445C1044.79 652.445 1045.49 652.738 1046.02 653.26C1046.54 653.781 1046.83 654.488 1046.83 655.225C1046.83 655.963 1046.54 656.67 1046.02 657.191C1045.49 657.712 1044.79 658.005 1044.05 658.005C1043.69 658.005 1043.32 657.933 1042.99 657.794C1042.65 657.654 1042.34 657.449 1042.08 657.191C1041.83 656.933 1041.62 656.626 1041.48 656.289C1041.34 655.952 1041.27 655.59 1041.27 655.225Z" fill="#FBFBFF"/>
<path d="M1020.46 655.285C1020.46 654.556 1020.75 653.856 1021.26 653.341C1021.78 652.825 1022.48 652.535 1023.21 652.535C1023.94 652.535 1024.64 652.825 1025.15 653.341C1025.67 653.856 1025.96 654.556 1025.96 655.285C1025.96 656.015 1025.67 656.714 1025.15 657.23C1024.64 657.745 1023.94 658.035 1023.21 658.035C1022.48 658.035 1021.78 657.745 1021.26 657.23C1020.75 656.714 1020.46 656.015 1020.46 655.285Z" fill="#FBFBFF"/>
<path d="M999.59 655.285C999.59 654.558 999.879 653.861 1000.39 653.347C1000.91 652.834 1001.6 652.545 1002.33 652.545C1003.06 652.545 1003.75 652.834 1004.27 653.347C1004.78 653.861 1005.07 654.558 1005.07 655.285C1005.07 656.012 1004.78 656.709 1004.27 657.222C1003.75 657.736 1003.06 658.025 1002.33 658.025C1001.6 658.025 1000.91 657.736 1000.39 657.222C999.879 656.709 999.59 656.012 999.59 655.285Z" fill="#FBFBFF"/>
<path d="M978.869 655.255C978.869 654.534 979.155 653.842 979.665 653.332C980.175 652.822 980.867 652.535 981.589 652.535C982.31 652.535 983.002 652.822 983.512 653.332C984.022 653.842 984.309 654.534 984.309 655.255C984.309 655.977 984.022 656.668 983.512 657.178C983.002 657.689 982.31 657.975 981.589 657.975C980.867 657.975 980.175 657.689 979.665 657.178C979.155 656.668 978.869 655.977 978.869 655.255Z" fill="#FBFBFF"/>
<path d="M1092.55 643.725C1092.55 643.001 1092.84 642.307 1093.35 641.795C1093.86 641.283 1094.56 640.995 1095.28 640.995C1096 640.995 1096.7 641.283 1097.21 641.795C1097.72 642.307 1098.01 643.001 1098.01 643.725C1098.01 644.449 1097.72 645.144 1097.21 645.656C1096.7 646.167 1096 646.455 1095.28 646.455C1094.56 646.455 1093.86 646.167 1093.35 645.656C1092.84 645.144 1092.55 644.449 1092.55 643.725Z" fill="#FBFBFF"/>
<path d="M1072.13 643.675C1072.13 642.948 1072.42 642.251 1072.93 641.738C1073.45 641.224 1074.14 640.935 1074.87 640.935C1075.6 640.935 1076.29 641.224 1076.81 641.738C1077.32 642.251 1077.61 642.948 1077.61 643.675C1077.61 644.035 1077.54 644.391 1077.4 644.724C1077.26 645.056 1077.06 645.358 1076.81 645.612C1076.55 645.867 1076.25 646.069 1075.92 646.206C1075.59 646.344 1075.23 646.415 1074.87 646.415C1074.51 646.415 1074.15 646.344 1073.82 646.206C1073.49 646.069 1073.19 645.867 1072.93 645.612C1072.68 645.358 1072.48 645.056 1072.34 644.724C1072.2 644.391 1072.13 644.035 1072.13 643.675Z" fill="#FBFBFF"/>
<path d="M1051.63 643.635C1051.63 642.905 1051.92 642.206 1052.43 641.69C1052.95 641.175 1053.65 640.885 1054.38 640.885C1055.11 640.885 1055.81 641.175 1056.32 641.69C1056.84 642.206 1057.13 642.905 1057.13 643.635C1057.13 644.364 1056.84 645.064 1056.32 645.579C1055.81 646.095 1055.11 646.385 1054.38 646.385C1053.65 646.385 1052.95 646.095 1052.43 645.579C1051.92 645.064 1051.63 644.364 1051.63 643.635Z" fill="#FBFBFF"/>
<path d="M1030.81 643.595C1030.81 642.879 1031.09 642.192 1031.6 641.686C1032.11 641.179 1032.79 640.895 1033.51 640.895C1034.23 640.895 1034.91 641.179 1035.42 641.686C1035.92 642.192 1036.21 642.879 1036.21 643.595C1036.21 644.311 1035.92 644.998 1035.42 645.504C1034.91 646.01 1034.23 646.295 1033.51 646.295C1032.79 646.295 1032.11 646.01 1031.6 645.504C1031.09 644.998 1030.81 644.311 1030.81 643.595Z" fill="#FBFBFF"/>
<path d="M1010.09 643.555C1010.09 642.842 1010.37 642.157 1010.88 641.653C1011.38 641.148 1012.07 640.865 1012.78 640.865C1013.49 640.865 1014.18 641.148 1014.68 641.653C1015.19 642.157 1015.47 642.842 1015.47 643.555C1015.47 644.269 1015.19 644.953 1014.68 645.457C1014.18 645.962 1013.49 646.245 1012.78 646.245C1012.07 646.245 1011.38 645.962 1010.88 645.457C1010.37 644.953 1010.09 644.269 1010.09 643.555Z" fill="#FBFBFF"/>
<path d="M989.269 643.625C989.269 643.274 989.338 642.927 989.473 642.603C989.607 642.279 989.803 641.985 990.051 641.737C990.299 641.489 990.594 641.292 990.918 641.158C991.242 641.024 991.589 640.955 991.939 640.955C992.648 640.955 993.327 641.236 993.827 641.737C994.328 642.238 994.609 642.917 994.609 643.625C994.609 644.333 994.328 645.012 993.827 645.513C993.327 646.014 992.648 646.295 991.939 646.295C991.589 646.295 991.242 646.226 990.918 646.092C990.594 645.957 990.299 645.761 990.051 645.513C989.803 645.265 989.607 644.971 989.473 644.647C989.338 644.323 989.269 643.976 989.269 643.625Z" fill="#FBFBFF"/>
<path d="M1087.2 632.407C1087.6 632.727 1087.82 633.223 1087.83 633.786C1087.84 634.35 1087.63 634.934 1087.24 635.411C1086.86 635.888 1086.33 636.218 1085.78 636.329C1085.23 636.44 1084.7 636.323 1084.3 636.003C1083.9 635.683 1083.68 635.187 1083.67 634.624C1083.66 634.06 1083.87 633.476 1084.26 632.999C1084.64 632.523 1085.17 632.192 1085.72 632.081C1086.27 631.97 1086.8 632.088 1087.2 632.407Z" fill="#FBFBFF"/>
<path d="M1067.05 632.388C1067.24 632.551 1067.39 632.759 1067.49 632.999C1067.59 633.239 1067.63 633.508 1067.63 633.789C1067.62 634.07 1067.56 634.358 1067.45 634.637C1067.33 634.917 1067.17 635.181 1066.97 635.416C1066.77 635.65 1066.54 635.851 1066.28 636.005C1066.02 636.16 1065.74 636.265 1065.47 636.316C1065.19 636.367 1064.92 636.362 1064.67 636.301C1064.41 636.24 1064.18 636.125 1063.99 635.962C1063.8 635.799 1063.65 635.592 1063.55 635.352C1063.45 635.111 1063.41 634.843 1063.41 634.562C1063.42 634.281 1063.48 633.992 1063.59 633.713C1063.71 633.434 1063.87 633.17 1064.07 632.935C1064.27 632.7 1064.5 632.5 1064.76 632.345C1065.02 632.191 1065.3 632.085 1065.57 632.035C1065.85 631.984 1066.12 631.989 1066.37 632.05C1066.63 632.11 1066.86 632.225 1067.05 632.388Z" fill="#FBFBFF"/>
<path d="M1046.08 632.382C1046.48 632.702 1046.71 633.199 1046.73 633.764C1046.74 634.328 1046.53 634.914 1046.15 635.392C1045.76 635.87 1045.24 636.201 1044.68 636.313C1044.13 636.425 1043.59 636.308 1043.2 635.988C1042.8 635.668 1042.57 635.171 1042.55 634.607C1042.54 634.042 1042.75 633.457 1043.13 632.978C1043.52 632.5 1044.04 632.169 1044.6 632.057C1045.15 631.945 1045.68 632.062 1046.08 632.382Z" fill="#FBFBFF"/>
<path d="M1004.4 632.651C1004.75 633.006 1004.91 633.511 1004.86 634.055C1004.8 634.6 1004.53 635.139 1004.11 635.553C1003.89 635.759 1003.65 635.928 1003.39 636.05C1003.13 636.173 1002.86 636.247 1002.59 636.268C1002.32 636.289 1002.06 636.256 1001.82 636.173C1001.58 636.089 1001.37 635.955 1001.2 635.78C1000.85 635.425 1000.69 634.919 1000.74 634.375C1000.8 633.831 1001.07 633.292 1001.49 632.877C1001.7 632.671 1001.95 632.503 1002.21 632.38C1002.47 632.257 1002.74 632.184 1003.01 632.163C1003.28 632.142 1003.54 632.174 1003.78 632.258C1004.02 632.341 1004.23 632.475 1004.4 632.651Z" fill="#FBFBFF"/>
<path d="M1025.34 632.488C1025.52 632.646 1025.66 632.846 1025.75 633.077C1025.84 633.307 1025.88 633.564 1025.87 633.832C1025.86 634.099 1025.8 634.373 1025.69 634.637C1025.58 634.902 1025.42 635.151 1025.22 635.371C1025.03 635.592 1024.8 635.779 1024.55 635.921C1024.3 636.064 1024.04 636.161 1023.77 636.204C1023.51 636.248 1023.25 636.239 1023.01 636.177C1022.77 636.115 1022.55 636.001 1022.38 635.843C1022.2 635.685 1022.06 635.484 1021.97 635.254C1021.88 635.023 1021.84 634.767 1021.85 634.499C1021.86 634.231 1021.92 633.957 1022.03 633.693C1022.14 633.429 1022.3 633.18 1022.5 632.959C1022.69 632.739 1022.92 632.552 1023.17 632.409C1023.42 632.266 1023.68 632.17 1023.95 632.126C1024.21 632.082 1024.47 632.092 1024.71 632.154C1024.95 632.216 1025.17 632.329 1025.34 632.488Z" fill="#FBFBFF"/>
<path d="M114.388 234.687L94.1881 214.847C94.1415 214.802 94.1046 214.747 94.0793 214.687C94.0541 214.627 94.041 214.562 94.041 214.497C94.041 214.432 94.0541 214.367 94.0793 214.307C94.1046 214.247 94.1415 214.193 94.1881 214.147L114.418 194.137C114.509 194.049 114.631 194 114.758 194C114.885 194 115.007 194.049 115.098 194.137L135.488 214.137C135.535 214.183 135.572 214.237 135.597 214.297C135.622 214.357 135.635 214.422 135.635 214.487C135.635 214.552 135.622 214.617 135.597 214.677C135.572 214.737 135.535 214.792 135.488 214.837L115.048 234.607C115.002 234.653 114.965 234.707 114.939 234.767C114.914 234.827 114.901 234.892 114.901 234.957C114.901 235.022 114.914 235.087 114.939 235.147C114.965 235.207 115.002 235.262 115.048 235.307L135.308 255.117C135.355 255.163 135.392 255.217 135.417 255.277C135.442 255.337 135.455 255.402 135.455 255.467C135.455 255.532 135.442 255.597 135.417 255.657C135.392 255.717 135.355 255.772 135.308 255.817L115.038 275.447C114.947 275.535 114.825 275.584 114.698 275.584C114.571 275.584 114.449 275.535 114.358 275.447L94.2881 255.847C94.2415 255.802 94.2046 255.747 94.1793 255.687C94.1541 255.627 94.141 255.562 94.141 255.497C94.141 255.432 94.1541 255.367 94.1793 255.307C94.2046 255.247 94.2415 255.193 94.2881 255.147L114.388 235.387C114.435 235.342 114.472 235.287 114.497 235.227C114.522 235.167 114.535 235.102 114.535 235.037C114.535 234.972 114.522 234.907 114.497 234.847C114.472 234.787 114.435 234.733 114.388 234.687Z" fill="#14193D"/>
<path d="M144.318 207.157C148.578 202.891 152.948 198.757 157.428 194.757C157.619 194.589 157.865 194.497 158.117 194.501C158.369 194.504 158.609 194.603 158.788 194.777L178.578 213.877C178.674 213.969 178.75 214.079 178.802 214.202C178.854 214.324 178.881 214.456 178.881 214.589C178.881 214.723 178.854 214.855 178.802 214.978C178.75 215.102 178.674 215.214 178.578 215.307L158.948 234.447C158.852 234.541 158.776 234.654 158.724 234.778C158.672 234.902 158.646 235.035 158.647 235.169C158.648 235.304 158.676 235.437 158.729 235.56C158.783 235.683 158.86 235.795 158.958 235.887L178.468 254.607C178.565 254.701 178.642 254.812 178.694 254.936C178.747 255.06 178.774 255.193 178.774 255.327C178.774 255.462 178.747 255.595 178.694 255.718C178.642 255.842 178.565 255.954 178.468 256.047L158.768 275.067C158.582 275.247 158.334 275.349 158.077 275.35C157.82 275.352 157.573 275.254 157.388 275.077L137.478 256.207C137.38 256.114 137.302 256.002 137.249 255.877C137.195 255.753 137.167 255.62 137.166 255.484C137.165 255.349 137.191 255.215 137.243 255.09C137.295 254.965 137.371 254.852 137.468 254.757L157.238 235.787C157.335 235.695 157.413 235.583 157.467 235.46C157.52 235.337 157.548 235.204 157.549 235.069C157.55 234.935 157.524 234.802 157.472 234.678C157.42 234.554 157.344 234.441 157.248 234.347L137.508 215.227C137.323 215.051 137.213 214.81 137.202 214.554C137.191 214.299 137.279 214.049 137.448 213.857C139.538 211.467 142.378 209.097 144.318 207.157Z" fill="#BBB1FF"/>
<path d="M178.481 295.712C178.506 295.737 178.526 295.767 178.54 295.8C178.553 295.833 178.56 295.868 178.56 295.903C178.56 295.939 178.553 295.974 178.54 296.007C178.526 296.039 178.506 296.069 178.481 296.094L158.046 316.53C158.021 316.555 157.991 316.575 157.958 316.588C157.925 316.602 157.89 316.609 157.855 316.609C157.82 316.609 157.784 316.602 157.752 316.588C157.719 316.575 157.689 316.555 157.664 316.53L137.257 296.122C137.232 296.097 137.212 296.068 137.198 296.035C137.185 296.002 137.178 295.967 137.178 295.932C137.178 295.896 137.185 295.861 137.198 295.828C137.212 295.795 137.232 295.766 137.257 295.741L157.692 275.305C157.717 275.28 157.747 275.26 157.78 275.247C157.813 275.233 157.848 275.226 157.883 275.226C157.919 275.226 157.954 275.233 157.987 275.247C158.019 275.26 158.049 275.28 158.074 275.305L178.481 295.712Z" fill="#BBB1FF"/>
<path d="M114.529 316.087L94.2288 296.497C94.1565 296.428 94.0989 296.345 94.0596 296.253C94.0203 296.161 94 296.062 94 295.962C94 295.862 94.0203 295.763 94.0596 295.671C94.0989 295.579 94.1565 295.496 94.2288 295.427L114.459 276.307C114.596 276.176 114.779 276.104 114.969 276.104C115.159 276.104 115.341 276.176 115.479 276.307L135.599 295.417C135.672 295.486 135.73 295.568 135.77 295.66C135.81 295.751 135.832 295.85 135.833 295.95C135.833 296.05 135.814 296.149 135.776 296.242C135.737 296.334 135.68 296.418 135.609 296.487L115.559 316.087C115.421 316.221 115.236 316.296 115.044 316.296C114.851 316.296 114.667 316.221 114.529 316.087Z" fill="#BBB1FF"/>
<defs>
<clipPath id="clip0_514_2284">
<rect width="723" height="145" fill="white" transform="translate(-72 445)"/>
</clipPath>
<clipPath id="clip1_514_2284">
<rect width="723" height="145" fill="white" transform="matrix(-1 0 0 1 1499 445)"/>
</clipPath>
</defs>
</svg>
