<svg width="177" height="131" viewBox="0 0 177 131" fill="none" xmlns="http://www.w3.org/2000/svg">
<path d="M75.1248 54.1041C71.1499 58.7559 67.4149 62.6139 63.9199 65.6781C63.5606 65.9866 63.0974 66.1468 62.6242 66.1263C62.1511 66.1057 61.7037 65.9059 61.3725 65.5674L1.23229 3.13807C-0.773615 1.04602 -0.330647 0 2.56131 0L173.291 0.0369264C176.195 0.0369264 176.638 1.0768 174.62 3.15655L114.591 65.2166C114.419 65.392 114.215 65.5318 113.99 65.6278C113.764 65.7238 113.522 65.7741 113.278 65.7758C113.034 65.7776 112.793 65.7306 112.568 65.6378C112.343 65.5449 112.14 65.408 111.969 65.2351L89.4675 42.7517C89.1304 42.4216 88.6819 42.2304 88.2126 42.2167C87.7433 42.203 87.288 42.3677 86.9386 42.6778C81.3885 47.588 77.4507 51.3968 75.1248 54.1041Z" fill="#FBB7C3"/>
<path d="M63.1438 66.8041L87.8056 91.4657C87.9233 91.583 88.0826 91.6488 88.2486 91.6488C88.4147 91.6488 88.574 91.583 88.6916 91.4657L113.538 66.3242C113.655 66.2069 113.815 66.1411 113.981 66.1411C114.147 66.1411 114.306 66.2069 114.424 66.3242L176.816 129.529C176.904 129.617 176.963 129.728 176.987 129.85C177.011 129.971 176.999 130.097 176.952 130.212C176.904 130.326 176.824 130.424 176.721 130.493C176.618 130.562 176.497 130.599 176.373 130.599H1.02855C0.90464 130.599 0.783563 130.562 0.680634 130.493C0.577705 130.424 0.497494 130.326 0.450118 130.212C0.402742 130.097 0.3902 129.971 0.41429 129.85C0.43838 129.728 0.498079 129.617 0.585543 129.529L62.2578 66.8041C62.3755 66.6869 62.5347 66.6211 62.7008 66.6211C62.8669 66.6211 63.0262 66.6869 63.1438 66.8041Z" fill="#FBB7C3"/>
</svg>
