<svg width="64" height="64" viewBox="0 0 64 64" fill="none" xmlns="http://www.w3.org/2000/svg">
<path d="M17.1713 10.2243C17.8905 7.25868 22.1082 7.25867 22.8274 10.2243L24.8061 18.3844C25.0628 19.4432 25.8895 20.2699 26.9483 20.5267L35.1085 22.5054C38.0741 23.2245 38.0741 27.4423 35.1085 28.1614L26.9483 30.1401C25.8895 30.3969 25.0628 31.2236 24.8061 32.2824L22.8274 40.4425C22.1082 43.4082 17.8905 43.4082 17.1713 40.4425L15.1926 32.2824C14.9359 31.2236 14.1092 30.3969 13.0504 30.1401L4.89024 28.1614C1.92461 27.4423 1.92461 23.2245 4.89024 22.5054L13.0504 20.5267C14.1092 20.2699 14.9359 19.4432 15.1926 18.3844L17.1713 10.2243Z" fill="#000B3A"/>
<path d="M40.9257 38.7022C41.3682 36.8772 43.9638 36.8772 44.4063 38.7022L45.624 43.7238C45.782 44.3754 46.2907 44.8841 46.9423 45.0421L51.9639 46.2598C53.7889 46.7023 53.7889 49.2979 51.9639 49.7404L46.9423 50.9581C46.2907 51.1161 45.782 51.6248 45.624 52.2764L44.4063 57.298C43.9638 59.123 41.3682 59.123 40.9257 57.298L39.708 52.2764C39.55 51.6248 39.0413 51.1161 38.3897 50.9581L33.3681 49.7404C31.5431 49.2979 31.5431 46.7023 33.3681 46.2598L38.3897 45.0421C39.0413 44.8841 39.55 44.3754 39.708 43.7238L40.9257 38.7022Z" fill="#000B3A"/>
<path d="M49.5239 9.89832C49.8143 8.70067 51.5177 8.70067 51.8081 9.89832L52.6072 13.1938C52.7109 13.6214 53.0447 13.9552 53.4723 14.0589L56.7678 14.858C57.9654 15.1484 57.9654 16.8518 56.7678 17.1422L53.4723 17.9413C53.0447 18.0449 52.7109 18.3788 52.6072 18.8064L51.8081 22.1018C51.5177 23.2995 49.8143 23.2995 49.5239 22.1018L48.7248 18.8064C48.6212 18.3788 48.2873 18.0449 47.8597 17.9413L44.5643 17.1422C43.3666 16.8518 43.3666 15.1484 44.5643 14.858L47.8597 14.0589C48.2873 13.9552 48.6212 13.6214 48.7248 13.1938L49.5239 9.89832Z" fill="#000B3A"/>
<path fill-rule="evenodd" clip-rule="evenodd" d="M50.666 10.483L50.0138 13.1727C49.7531 14.2478 48.9137 15.0872 47.8386 15.3479L45.1489 16.0001L47.8386 16.6523C48.9137 16.913 49.7531 17.7524 50.0138 18.8275L50.666 21.5172L51.3182 18.8275C51.5789 17.7524 52.4183 16.913 53.4934 16.6523L56.1831 16.0001L53.4934 15.3479C52.4183 15.0872 51.5789 14.2478 51.3182 13.1727L50.666 10.483ZM51.9713 9.02664C51.6394 7.65789 49.6927 7.65789 49.3608 9.02665L48.4475 12.7929C48.329 13.2815 47.9475 13.6631 47.4588 13.7816L43.6926 14.6948C42.3238 15.0267 42.3238 16.9734 43.6926 17.3053L47.4588 18.2186C47.9475 18.3371 48.329 18.7186 48.4475 19.2073L49.3608 22.9735C49.6927 24.3423 51.6394 24.3423 51.9713 22.9735L52.8845 19.2073C53.003 18.7186 53.3846 18.3371 53.8732 18.2186L57.6395 17.3053C59.0082 16.9734 59.0082 15.0267 57.6395 14.6948L53.8732 13.7816C53.3846 13.6631 53.003 13.2815 52.8845 12.7929L51.9713 9.02664Z" fill="#000B3A"/>
<path d="M18.666 61.3334C17.1933 61.3334 15.9993 60.1395 15.9993 58.6667C15.9993 57.194 17.1933 56.0001 18.666 56.0001C20.1388 56.0001 21.3327 57.194 21.3327 58.6667C21.3327 60.1395 20.1388 61.3334 18.666 61.3334Z" fill="#000B3A"/>
<path d="M5.33268 50.6667C3.85992 50.6667 2.66602 49.4728 2.66602 48.0001C2.66602 46.5273 3.85992 45.3334 5.33268 45.3334C6.80544 45.3334 7.99935 46.5273 7.99935 48.0001C7.99935 49.4728 6.80544 50.6667 5.33268 50.6667Z" fill="#000B3A"/>
<path d="M34.666 8.00008C33.1933 8.00008 31.9993 6.80617 31.9993 5.33341C31.9993 3.86066 33.1933 2.66675 34.666 2.66675C36.1388 2.66675 37.3327 3.86066 37.3327 5.33341C37.3327 6.80617 36.1388 8.00008 34.666 8.00008Z" fill="#000B3A"/>
<path d="M58.666 37.3334C57.1933 37.3334 55.9994 36.1395 55.9994 34.6667C55.9994 33.194 57.1933 32.0001 58.666 32.0001C60.1388 32.0001 61.3327 33.194 61.3327 34.6667C61.3327 36.1395 60.1388 37.3334 58.666 37.3334Z" fill="#000B3A"/>
</svg>
