<svg width="64" height="64" viewBox="0 0 64 64" fill="none" xmlns="http://www.w3.org/2000/svg">
<path fill-rule="evenodd" clip-rule="evenodd" d="M49.4277 38.4177C48.3863 39.4591 48.3863 41.1475 49.4277 42.1889C50.4691 43.2303 52.1575 43.2303 53.1989 42.1889L60.7414 34.6465C61.7828 33.6051 61.7828 31.9166 60.7414 30.8752L53.1989 23.3327C52.1575 22.2913 50.4691 22.2913 49.4277 23.3327C48.3863 24.3741 48.3863 26.0626 49.4277 27.104L52.4179 30.0942L27.5813 30.0942L30.5715 27.104C31.6129 26.0626 31.6129 24.3741 30.5715 23.3327C29.5301 22.2913 27.8417 22.2913 26.8003 23.3327L19.2578 30.8752C18.2164 31.9166 18.2164 33.6051 19.2578 34.6465L26.8003 42.1889C27.8417 43.2303 29.5301 43.2303 30.5715 42.1889C31.6129 41.1475 31.6129 39.4591 30.5715 38.4177L27.5813 35.4275H52.4179L49.4277 38.4177Z" fill="#000B3A"/>
<path fill-rule="evenodd" clip-rule="evenodd" d="M5.59961 18.6667C5.59961 11.4502 11.4498 5.60008 18.6663 5.60008H29.3329C36.5495 5.60008 42.3996 11.4502 42.3996 18.6667V21.1667C42.3996 22.4922 41.3251 23.5667 39.9996 23.5667C38.6741 23.5667 37.5996 22.4922 37.5996 21.1667V18.6667C37.5996 14.1012 33.8985 10.4001 29.3329 10.4001H18.6663C14.1007 10.4001 10.3996 14.1012 10.3996 18.6667V45.3334C10.3996 49.899 14.1007 53.6001 18.6663 53.6001H29.3329C33.8985 53.6001 37.5996 49.899 37.5996 45.3334V45.1667C37.5996 43.8413 38.6741 42.7667 39.9996 42.7667C41.3251 42.7667 42.3996 43.8413 42.3996 45.1667V45.3334C42.3996 52.5499 36.5495 58.4001 29.3329 58.4001H18.6663C11.4498 58.4001 5.59961 52.5499 5.59961 45.3334V18.6667Z" fill="#000B3A"/>
<path d="M53.5786 3.52222C53.8552 2.38159 55.4774 2.38159 55.754 3.52222L56.515 6.66072C56.6138 7.06796 56.9317 7.38592 57.339 7.48467L60.4775 8.24572C61.6181 8.5223 61.6181 10.1445 60.4775 10.4211L57.339 11.1822C56.9317 11.2809 56.6138 11.5989 56.515 12.0061L55.754 15.1446C55.4774 16.2852 53.8552 16.2852 53.5786 15.1446L52.8175 12.0061C52.7188 11.5989 52.4008 11.2809 51.9936 11.1822L48.8551 10.4211C47.7145 10.1445 47.7145 8.5223 48.8551 8.24572L51.9936 7.48467C52.4008 7.38592 52.7188 7.06796 52.8175 6.66072L53.5786 3.52222Z" fill="#000B3A"/>
<path fill-rule="evenodd" clip-rule="evenodd" d="M54.6663 4.73584L54.1228 6.97723C53.9055 7.87315 53.206 8.57266 52.3101 8.78991L50.0687 9.33342L52.3101 9.87692C53.206 10.0942 53.9055 10.7937 54.1228 11.6896L54.6663 13.931L55.2098 11.6896C55.427 10.7937 56.1265 10.0942 57.0225 9.87692L59.2638 9.33342L57.0225 8.78991C56.1265 8.57266 55.427 7.87315 55.2098 6.97723L54.6663 4.73584ZM55.754 3.52222C55.4774 2.38159 53.8552 2.38159 53.5786 3.52222L52.8175 6.66072C52.7188 7.06796 52.4008 7.38592 51.9936 7.48467L48.8551 8.24572C47.7145 8.5223 47.7145 10.1445 48.8551 10.4211L51.9936 11.1822C52.4008 11.2809 52.7188 11.5989 52.8175 12.0061L53.5786 15.1446C53.8552 16.2852 55.4774 16.2852 55.754 15.1446L56.515 12.0061C56.6138 11.5989 56.9317 11.2809 57.339 11.1822L60.4775 10.4211C61.6181 10.1445 61.6181 8.5223 60.4775 8.24572L57.339 7.48467C56.9317 7.38592 56.6138 7.06796 56.515 6.66072L55.754 3.52222Z" fill="#000B3A"/>
<path d="M61.3329 50.6667C61.3329 52.1395 60.139 53.3334 58.6663 53.3334C57.1935 53.3334 55.9996 52.1395 55.9996 50.6667C55.9996 49.194 57.1935 48.0001 58.6663 48.0001C60.139 48.0001 61.3329 49.194 61.3329 50.6667Z" fill="#000B3A"/>
<path d="M53.3329 58.6667C53.3329 60.1395 52.139 61.3334 50.6663 61.3334C49.1935 61.3334 47.9996 60.1395 47.9996 58.6667C47.9996 57.194 49.1935 56.0001 50.6663 56.0001C52.139 56.0001 53.3329 57.194 53.3329 58.6667Z" fill="#000B3A"/>
</svg>
