<svg width="116" height="116" viewBox="0 0 116 116" fill="none" xmlns="http://www.w3.org/2000/svg">
<g clip-path="url(#clip0_7_1543)">
<g clip-path="url(#clip1_7_1543)">
<path d="M43.179 79.096C41.8316 79.096 40.5152 78.9651 39.2369 78.7223L39.2369 112.087L47.1211 112.087L47.1211 78.7247C45.8428 78.9651 44.5264 79.0984 43.179 79.0984L43.179 79.096Z" fill="white"/>
<path d="M54.9805 75.499L87.153 108.514L93.7422 101.925L60.727 69.7548C59.2011 72.0211 57.2467 73.9731 54.9829 75.499L54.9805 75.499Z" fill="white"/>
<path d="M60.8015 69.6362L107.067 89.8442L110.906 80.5722L63.9056 62.1495C63.3581 64.8704 62.2845 67.4009 60.8015 69.6362Z" fill="white"/>
<path d="M22.6311 62.9396L4.03224 71.0642L6.22706 76.3608L25.1211 68.9551C23.9975 67.1174 23.1524 65.0916 22.6311 62.9396Z" fill="white"/>
<path d="M31.7399 75.73L21.3943 101.175L28.0168 103.917L38.6934 78.6128C36.1796 78.07 33.8324 77.0773 31.7399 75.7276L31.7399 75.73Z" fill="white"/>
<path d="M25.9473 70.2001L9.88368 86.6851L14.4447 91.2461L30.9297 75.1825C29.0039 73.8113 27.3185 72.1259 25.9473 70.2001Z" fill="white"/>
<path d="M47.3924 78.6747L62.4348 115.677L70.3809 112.385L54.8505 75.5801C52.6223 77.0584 50.1014 78.1272 47.39 78.6747L47.3924 78.6747Z" fill="white"/>
<path d="M43.179 36.8064C44.5264 36.8064 45.8428 36.9374 47.1211 37.1802L47.1211 3.73175L39.2369 3.73175L39.2369 37.1802C40.5152 36.9397 41.8316 36.8064 43.179 36.8064Z" fill="white"/>
<path d="M38.6953 37.2872L27.9902 11.9182L21.3677 14.6605L31.7395 40.1724C33.8343 38.8226 36.1791 37.83 38.6953 37.2872Z" fill="white"/>
<path d="M30.9297 40.7198L14.409 24.6229L9.84797 29.1839L25.9449 45.7046C27.3161 43.7788 29.0015 42.0934 30.9297 40.7198Z" fill="white"/>
<path d="M63.9047 53.751L110.943 35.3116L107.104 26.0396L60.8005 46.2643C62.2835 48.4972 63.3571 51.0277 63.9047 53.7486L63.9047 53.751Z" fill="white"/>
<path d="M54.8523 40.3203L70.416 3.43207L62.4699 0.13983L47.3942 37.2233C50.1056 37.7708 52.6265 38.8396 54.8523 40.3179L54.8523 40.3203Z" fill="white"/>
<path d="M60.7254 46.1475L93.793 13.925L87.2038 7.33577L54.9813 40.4033C57.2451 41.9292 59.1995 43.8836 60.7254 46.1475Z" fill="white"/>
<path d="M2.90237 55.4269L116 52.6037L115.995 63.354L2.9 60.445L2.90237 55.4269Z" fill="white"/>
</g>
</g>
<defs>
<clipPath id="clip0_7_1543">
<rect width="116" height="116" fill="white" transform="translate(116 116) rotate(-180)"/>
</clipPath>
<clipPath id="clip1_7_1543">
<rect width="113.1" height="115.535" fill="white" transform="translate(116 115.677) rotate(-180)"/>
</clipPath>
</defs>
</svg>
