<svg width="180" height="60" viewBox="0 0 180 60" fill="none" xmlns="http://www.w3.org/2000/svg">
<rect width="30" height="30" rx="7" fill="#FBB7C3"/>
<rect x="30" y="30" width="30" height="30" rx="7" fill="#FBB7C3"/>
<rect x="60" width="30" height="30" rx="7" fill="#FBB7C3"/>
<rect x="90" y="30" width="30" height="30" rx="7" fill="#FBB7C3"/>
<rect x="120" width="30" height="30" rx="7" fill="#FBB7C3"/>
<rect x="150" y="30" width="30" height="30" rx="7" fill="#FBB7C3"/>
<path d="M35.9095 30.4545L30.0004 24.0908L23.6367 28.1817L30.0004 35.4545L35.9095 30.4545Z" fill="#FBB7C3"/>
<path d="M155.909 30.4545L150 24.0908L143.637 28.1817L150 35.4545L155.909 30.4545Z" fill="#FBB7C3"/>
<path d="M95.9095 30.4545L90.0004 24.0908L83.6367 28.1817L90.0004 35.4545L95.9095 30.4545Z" fill="#FBB7C3"/>
<path d="M59.5143 35.4292L65.4324 29.0739L60.8906 23.0239L54.0987 29.8984L59.5143 35.4292Z" fill="#FBB7C3"/>
<path d="M119.514 36.3383L125.432 29.9831L120.891 23.9331L114.099 30.8076L119.514 36.3383Z" fill="#FBB7C3"/>
</svg>
