<svg width="64" height="64" viewBox="0 0 64 64" fill="none" xmlns="http://www.w3.org/2000/svg">
<path d="M9.8144 52.4827L14.1041 56.7725C15.4587 58.1271 17.3778 58.9173 19.184 58.9173C20.9902 58.9173 22.9092 58.1271 24.2639 56.7725L50.867 30.1693L52.2216 17.3001C52.4474 15.7197 51.2057 14.3651 49.6253 14.3651C49.5124 14.3651 49.3995 14.3651 49.2866 14.3651L36.4175 15.7197L9.8144 42.3229C6.99223 45.145 6.99223 49.6605 9.8144 52.4827ZM38.901 20.9125L46.4644 20.1223L45.6742 27.6858L32.8433 40.6295L29.3438 44.1291L22.4577 37.2429L25.9572 33.7434L38.901 20.9125ZM13.6525 46.161L18.6196 41.0811L25.5056 47.9672L20.4257 52.9343C19.9742 53.3858 19.4098 53.4987 19.184 53.4987C18.9582 53.4987 18.3938 53.3858 17.9422 52.9343L13.6525 48.6446C12.9752 47.9672 12.9752 46.8384 13.6525 46.161Z" fill="white"/>
<path d="M11.5924 4.0355C12.0349 2.2105 14.6305 2.2105 15.073 4.0355L16.2907 9.05711C16.4487 9.70869 16.9574 10.2174 17.609 10.3754L22.6306 11.5931C24.4556 12.0356 24.4556 14.6312 22.6306 15.0737L17.609 16.2914C16.9574 16.4494 16.4487 16.9581 16.2907 17.6097L15.073 22.6313C14.6305 24.4563 12.0349 24.4563 11.5924 22.6313L10.3747 17.6097C10.2167 16.9581 9.70796 16.4494 9.05638 16.2914L4.03477 15.0737C2.20977 14.6312 2.20976 12.0356 4.03477 11.5931L9.05638 10.3754C9.70796 10.2174 10.2167 9.70869 10.3747 9.05711L11.5924 4.0355Z" fill="white"/>
<path fill-rule="evenodd" clip-rule="evenodd" d="M13.3327 5.9773L12.4631 9.56351C12.1155 10.997 10.9963 12.1162 9.56278 12.4638L5.97657 13.3334L9.56278 14.203C10.9963 14.5506 12.1155 15.6698 12.4631 17.1033L13.3327 20.6895L14.2023 17.1033C14.5499 15.6698 15.6691 14.5506 17.1026 14.203L20.6888 13.3334L17.1026 12.4638C15.6691 12.1162 14.5499 10.997 14.2023 9.56351L13.3327 5.9773ZM15.073 4.0355C14.6305 2.2105 12.0349 2.2105 11.5924 4.0355L10.3747 9.05711C10.2167 9.70869 9.70796 10.2174 9.05638 10.3754L4.03477 11.5931C2.20976 12.0356 2.20977 14.6312 4.03477 15.0737L9.05638 16.2914C9.70796 16.4494 10.2167 16.9581 10.3747 17.6097L11.5924 22.6313C12.0349 24.4563 14.6305 24.4563 15.073 22.6313L16.2907 17.6097C16.4487 16.9581 16.9574 16.4494 17.609 16.2914L22.6306 15.0737C24.4556 14.6312 24.4556 12.0356 22.6306 11.5931L17.609 10.3754C16.9574 10.2174 16.4487 9.70869 16.2907 9.05711L15.073 4.0355Z" fill="white"/>
<path d="M52.0274 46.36C52.3593 44.9912 54.306 44.9912 54.6379 46.36L55.5512 50.1262C55.6697 50.6149 56.0512 50.9964 56.5399 51.1149L60.3061 52.0282C61.6749 52.3601 61.6749 54.3068 60.3061 54.6387L56.5399 55.5519C56.0512 55.6704 55.6697 56.052 55.5512 56.5406L54.6379 60.3069C54.306 61.6756 52.3593 61.6756 52.0274 60.3069L51.1142 56.5406C50.9957 56.052 50.6141 55.6704 50.1255 55.5519L46.3592 54.6387C44.9905 54.3068 44.9905 52.3601 46.3592 52.0282L50.1255 51.1149C50.6141 50.9964 50.9957 50.6149 51.1142 50.1262L52.0274 46.36Z" fill="white"/>
<path fill-rule="evenodd" clip-rule="evenodd" d="M53.3327 47.8163L52.6805 50.506C52.4198 51.5811 51.5804 52.4205 50.5053 52.6812L47.8156 53.3334L50.5053 53.9856C51.5804 54.2463 52.4198 55.0857 52.6805 56.1608L53.3327 58.8505L53.9849 56.1608C54.2456 55.0857 55.085 54.2463 56.1601 53.9856L58.8498 53.3334L56.1601 52.6812C55.085 52.4205 54.2456 51.5811 53.9849 50.506L53.3327 47.8163ZM54.6379 46.36C54.306 44.9912 52.3593 44.9912 52.0274 46.36L51.1142 50.1262C50.9957 50.6149 50.6141 50.9964 50.1255 51.1149L46.3592 52.0282C44.9905 52.3601 44.9905 54.3068 46.3592 54.6387L50.1255 55.5519C50.6141 55.6704 50.9957 56.052 51.1142 56.5406L52.0274 60.3069C52.3593 61.6756 54.306 61.6756 54.6379 60.3069L55.5512 56.5406C55.6697 56.052 56.0512 55.6704 56.5399 55.5519L60.3061 54.6387C61.6749 54.3068 61.6749 52.3601 60.3061 52.0282L56.5399 51.1149C56.0512 50.9964 55.6697 50.6149 55.5512 50.1262L54.6379 46.36Z" fill="white"/>
<path d="M61.3327 5.33341C61.3327 6.80617 60.1388 8.00008 58.666 8.00008C57.1933 8.00008 55.9994 6.80617 55.9994 5.33341C55.9994 3.86066 57.1933 2.66675 58.666 2.66675C60.1388 2.66675 61.3327 3.86066 61.3327 5.33341Z" fill="white"/>
<path d="M34.666 5.33341C34.666 6.80617 33.4721 8.00008 31.9993 8.00008C30.5266 8.00008 29.3327 6.80617 29.3327 5.33341C29.3327 3.86066 30.5266 2.66675 31.9993 2.66675C33.4721 2.66675 34.666 3.86066 34.666 5.33341Z" fill="white"/>
<path d="M10.666 32.0001C10.666 33.4728 9.47211 34.6667 7.99935 34.6667C6.52659 34.6667 5.33268 33.4728 5.33268 32.0001C5.33268 30.5273 6.52659 29.3334 7.99935 29.3334C9.47211 29.3334 10.666 30.5273 10.666 32.0001Z" fill="white"/>
</svg>
