<svg width="64" height="64" viewBox="0 0 64 64" fill="none" xmlns="http://www.w3.org/2000/svg">
<path fill-rule="evenodd" clip-rule="evenodd" d="M8.00072 37.6002C9.3262 37.6002 10.4007 38.6747 10.4007 40.0002V53.6002H24.0007C25.3262 53.6002 26.4007 54.6747 26.4007 56.0002C26.4007 57.3256 25.3262 58.4002 24.0007 58.4002H8.00072C6.67523 58.4002 5.60072 57.3256 5.60072 56.0002V40.0002C5.60072 38.6747 6.67523 37.6002 8.00072 37.6002Z" fill="white"/>
<path fill-rule="evenodd" clip-rule="evenodd" d="M37.6007 8.00016C37.6007 6.67468 38.6752 5.60016 40.0006 5.60016H56.0006C57.3261 5.60016 58.4007 6.67468 58.4007 8.00016V24.0002C58.4007 25.3256 57.3261 26.4002 56.0006 26.4002C54.6752 26.4002 53.6007 25.3256 53.6007 24.0002V10.4002H40.0006C38.6752 10.4002 37.6007 9.32565 37.6007 8.00016Z" fill="white"/>
<path fill-rule="evenodd" clip-rule="evenodd" d="M57.6977 6.30311C58.635 7.24036 58.635 8.75996 57.6977 9.69722L39.031 28.3639C38.0938 29.3011 36.5742 29.3011 35.6369 28.3639C34.6997 27.4266 34.6997 25.907 35.6369 24.9698L54.3036 6.30311C55.2408 5.36585 56.7604 5.36585 57.6977 6.30311Z" fill="white"/>
<path fill-rule="evenodd" clip-rule="evenodd" d="M29.6978 34.3031C30.635 35.2404 30.635 36.76 29.6978 37.6972L9.69777 57.6972C8.76051 58.6345 7.24092 58.6345 6.30366 57.6972C5.3664 56.76 5.3664 55.2404 6.30366 54.3031L26.3037 34.3031C27.2409 33.3658 28.7605 33.3658 29.6978 34.3031Z" fill="white"/>
<path d="M10.6673 8.00016C10.6673 9.47292 9.47341 10.6668 8.00065 10.6668C6.52789 10.6668 5.33398 9.47292 5.33398 8.00016C5.33398 6.5274 6.52789 5.3335 8.00065 5.3335C9.47341 5.3335 10.6673 6.5274 10.6673 8.00016Z" fill="white"/>
<path d="M58.6673 56.0002C58.6673 57.4729 57.4734 58.6668 56.0006 58.6668C54.5279 58.6668 53.334 57.4729 53.334 56.0002C53.334 54.5274 54.5279 53.3335 56.0006 53.3335C57.4734 53.3335 58.6673 54.5274 58.6673 56.0002Z" fill="white"/>
</svg>
