<svg width="79" height="81" viewBox="0 0 79 81" fill="none" xmlns="http://www.w3.org/2000/svg">
<path d="M0.867188 47.2349C2.90052 57.3083 7.61053 65.3449 14.9972 71.3449C39.8172 91.5149 75.8872 74.5949 78.3372 43.5149C79.5972 27.5283 73.2305 14.8783 59.2372 5.56494" stroke="#001133" stroke-width="0.5"/>
<path d="M59.2365 5.56484C28.7365 -11.1752 -4.72348 14.0848 0.866525 47.2348" stroke="#FBB7C3" stroke-width="0.5"/>
<path d="M59.2372 5.56494L54.8672 13.4849" stroke="#FBB7C3" stroke-width="0.5"/>
<path d="M54.866 13.485C30.476 2.69502 6.82592 19.485 10.0759 45.695" stroke="#FBB7C3" stroke-width="0.5"/>
<path d="M10.0762 45.6949C30.3095 42.2415 45.2395 31.5049 54.8662 13.4849" stroke="#001133" stroke-width="0.5"/>
<path d="M59.2365 5.56484L54.8665 13.4848C30.4765 2.69484 6.82649 19.4848 10.0765 45.6948C7.08982 46.6682 4.01986 47.1815 0.866525 47.2348C-4.72348 14.0848 28.7365 -11.1752 59.2365 5.56484Z" fill="#FBB7C3"/>
<path d="M59.2372 5.56494C73.2305 14.8783 79.5972 27.5283 78.3372 43.5149C75.8872 74.5949 39.8172 91.5149 14.9972 71.3449C7.61053 65.3449 2.90052 57.3083 0.867188 47.2349C4.02052 47.1816 7.09048 46.6683 10.0771 45.6949C30.3105 42.2416 45.2405 31.5049 54.8672 13.4849L59.2372 5.56494Z" fill="#14183B"/>
</svg>
