<svg width="64" height="64" viewBox="0 0 64 64" fill="none" xmlns="http://www.w3.org/2000/svg">
<path fill-rule="evenodd" clip-rule="evenodd" d="M16.0007 13.3335C16.0007 11.8607 17.1946 10.6668 18.6673 10.6668H42.6673C44.1401 10.6668 45.334 11.8607 45.334 13.3335C45.334 14.8063 44.1401 16.0002 42.6673 16.0002H18.6673C17.1946 16.0002 16.0007 14.8063 16.0007 13.3335ZM13.334 16.0002C14.8067 16.0002 16.0007 17.1941 16.0007 18.6668V42.6668C16.0007 44.1396 14.8067 45.3335 13.334 45.3335C11.8612 45.3335 10.6673 44.1396 10.6673 42.6668V18.6668C10.6673 17.1941 11.8612 16.0002 13.334 16.0002ZM16.7817 43.4479L43.4484 16.7812C44.4898 15.7398 46.1782 15.7398 47.2196 16.7812C48.261 17.8226 48.261 19.5111 47.2196 20.5524L20.5529 47.2191C19.5115 48.2605 17.8231 48.2605 16.7817 47.2191C15.7403 46.1777 15.7403 44.4893 16.7817 43.4479Z" fill="white"/>
<path fill-rule="evenodd" clip-rule="evenodd" d="M48.0007 10.6668C46.5279 10.6668 45.334 11.8607 45.334 13.3335C45.334 14.8063 46.5279 16.0002 48.0007 16.0002C49.4734 16.0002 50.6673 14.8063 50.6673 13.3335C50.6673 11.8607 49.4734 10.6668 48.0007 10.6668ZM56.0007 13.3335C56.0007 8.91522 52.4189 5.3335 48.0007 5.3335C43.5824 5.3335 40.0007 8.91522 40.0007 13.3335C40.0007 17.7518 43.5824 21.3335 48.0007 21.3335C52.4189 21.3335 56.0007 17.7518 56.0007 13.3335ZM13.334 10.6668C11.8612 10.6668 10.6673 11.8607 10.6673 13.3335C10.6673 14.8063 11.8612 16.0002 13.334 16.0002C14.8067 16.0002 16.0007 14.8063 16.0007 13.3335C16.0007 11.8607 14.8067 10.6668 13.334 10.6668ZM21.334 13.3335C21.334 8.91522 17.7523 5.3335 13.334 5.3335C8.91571 5.3335 5.33399 8.91522 5.33399 13.3335C5.33399 17.7518 8.91571 21.3335 13.334 21.3335C17.7523 21.3335 21.334 17.7518 21.334 13.3335ZM10.6673 48.0002C10.6673 46.5274 11.8612 45.3335 13.334 45.3335C14.8067 45.3335 16.0007 46.5274 16.0007 48.0002C16.0007 49.4729 14.8067 50.6668 13.334 50.6668C11.8612 50.6668 10.6673 49.4729 10.6673 48.0002ZM13.334 40.0002C17.7523 40.0002 21.334 43.5819 21.334 48.0002C21.334 52.4184 17.7523 56.0002 13.334 56.0002C8.9157 56.0002 5.33398 52.4184 5.33398 48.0002C5.33398 43.5819 8.91571 40.0002 13.334 40.0002Z" fill="white"/>
<path d="M58.6673 29.3335C58.6673 30.8063 57.4734 32.0002 56.0007 32.0002C54.5279 32.0002 53.334 30.8063 53.334 29.3335C53.334 27.8607 54.5279 26.6668 56.0007 26.6668C57.4734 26.6668 58.6673 27.8607 58.6673 29.3335Z" fill="white"/>
<path d="M46.2603 38.7022C46.7029 36.8772 49.2984 36.8772 49.741 38.7022L50.9586 43.7239C51.1166 44.3754 51.6254 44.8842 52.277 45.0422L57.2986 46.2598C59.1236 46.7024 59.1236 49.2979 57.2986 49.7405L52.277 50.9581C51.6254 51.1161 51.1166 51.6249 50.9586 52.2765L49.741 57.2981C49.2984 59.1231 46.7029 59.1231 46.2603 57.2981L45.0427 52.2765C44.8847 51.6249 44.3759 51.1161 43.7243 50.9581L38.7027 49.7405C36.8777 49.2979 36.8777 46.7024 38.7027 46.2598L43.7243 45.0422C44.3759 44.8842 44.8847 44.3754 45.0427 43.7239L46.2603 38.7022Z" fill="white"/>
<path fill-rule="evenodd" clip-rule="evenodd" d="M48.0007 40.6441L47.1311 44.2303C46.7835 45.6637 45.6642 46.783 44.2308 47.1306L40.6445 48.0002L44.2308 48.8698C45.6642 49.2174 46.7835 50.3366 47.1311 51.7701L48.0007 55.3563L48.8703 51.7701C49.2179 50.3366 50.3371 49.2174 51.7706 48.8698L55.3568 48.0002L51.7706 47.1306C50.3371 46.783 49.2179 45.6637 48.8703 44.2303L48.0007 40.6441ZM49.741 38.7022C49.2984 36.8772 46.7029 36.8772 46.2603 38.7022L45.0427 43.7239C44.8847 44.3754 44.3759 44.8842 43.7243 45.0422L38.7027 46.2598C36.8777 46.7024 36.8777 49.2979 38.7027 49.7405L43.7243 50.9581C44.3759 51.1161 44.8847 51.6249 45.0427 52.2765L46.2603 57.2981C46.7029 59.1231 49.2984 59.1231 49.741 57.2981L50.9586 52.2765C51.1166 51.6249 51.6254 51.1161 52.277 50.9581L57.2986 49.7405C59.1236 49.2979 59.1236 46.7024 57.2986 46.2598L52.277 45.0422C51.6254 44.8842 51.1166 44.3754 50.9586 43.7239L49.741 38.7022Z" fill="white"/>
<path d="M32.0007 56.0002C32.0007 57.4729 30.8067 58.6668 29.334 58.6668C27.8612 58.6668 26.6673 57.4729 26.6673 56.0002C26.6673 54.5274 27.8612 53.3335 29.334 53.3335C30.8067 53.3335 32.0007 54.5274 32.0007 56.0002Z" fill="white"/>
</svg>
