<svg width="97" height="96" viewBox="0 0 97 96" fill="none" xmlns="http://www.w3.org/2000/svg">
<path d="M95.6914 39.7259C85.2815 39.3568 74.6986 39.4087 63.9426 39.8816C60.1131 33.653 54.5737 30.1522 47.3242 29.3794C39.3019 21.5417 31.1671 14.1106 22.9199 7.08601C52.8607 -10.2764 89.1513 5.65859 95.6914 39.7259Z" fill="#FA0294"/>
<path d="M22.9201 7.08594C31.1673 14.1105 39.3021 21.5416 47.3244 29.3793C42.1857 30.527 38.1803 32.981 35.3082 36.7413C21.1207 55.2715 49.4611 75.6445 62.6365 56.128C67.2906 59.0434 72.6369 60.9812 76.9018 63.6975C80.7255 66.1429 84.5291 68.6199 88.3124 71.1287C88.4492 71.2189 88.6089 71.2685 88.7727 71.2716C88.9366 71.2747 89.0979 71.2311 89.238 71.146C89.5206 70.9787 89.8206 70.9585 90.1378 71.0854C85.9853 78.7271 79.9498 84.9269 72.0313 89.6849C57.1633 85.1345 43.564 77.862 31.2336 67.8673C20.1546 58.8934 9.96677 49.6369 0.669922 40.0978C3.24213 26.6716 10.0966 16.0742 21.2332 8.30569C21.7984 7.91352 22.3606 7.50695 22.9201 7.08594Z" fill="#FBB7C3"/>
<path d="M95.6918 39.7259C97.399 50.874 95.5477 61.3272 90.138 71.0854C89.8208 70.9586 89.5209 70.9787 89.2383 71.146C89.0982 71.2311 88.9369 71.2747 88.773 71.2716C88.6091 71.2685 88.4495 71.219 88.3127 71.1287C84.5294 68.6199 80.7258 66.1429 76.9021 63.6976C72.6372 60.9812 67.2909 59.0434 62.6367 56.128C65.6242 50.9721 66.0596 45.5566 63.943 39.8816C74.699 39.4086 85.2819 39.3568 95.6918 39.7259Z" fill="#FFD52E"/>
<path d="M0.669833 40.0977C9.96669 49.6367 20.1545 58.8932 31.2335 67.8671C43.5639 77.8618 57.1632 85.1343 72.0312 89.6847C63.1496 94.7484 53.9624 96.7669 44.4694 95.7404C16.3107 92.6952 -4.00166 68.6111 0.669833 40.0977Z" fill="#FA0294"/>
</svg>
