<svg width="74" height="74" viewBox="0 0 74 74" fill="none" xmlns="http://www.w3.org/2000/svg">
<path d="M73.094 26.8264C71.5107 28.4097 64.2906 23.7579 56.968 16.4352C49.6453 9.11259 44.9936 1.89344 46.5768 0.309256C48.1601 -1.27402 55.3802 3.37777 62.7028 10.7004C70.0255 18.0222 74.6782 25.2422 73.094 26.8264Z" fill="url(#paint0_linear_7_1626)"/>
<path d="M72.1934 47.5512C70.6682 49.0746 66.1553 47.2925 60.268 43.2453C60.8454 41.1646 61.1531 38.9739 61.1531 36.7098C61.1531 23.2029 50.2037 12.2534 36.6968 12.2534C34.4326 12.2534 32.242 12.5612 30.1612 13.1386C26.1132 7.25305 24.3302 2.73835 25.8553 1.21318C28.6234 -1.55483 41.2405 6.57488 54.0366 19.3709C66.8317 32.166 74.9596 44.7832 72.1934 47.5512Z" fill="url(#paint1_linear_7_1626)"/>
<path d="M26.8264 73.0958C25.2413 74.6791 18.0222 70.0264 10.7004 62.7038C3.37689 55.382 -1.27398 48.161 0.309297 46.5778C1.89257 44.9945 9.11354 49.6472 16.4353 56.9698C23.757 64.2916 28.4106 71.5107 26.8264 73.0958Z" fill="url(#paint2_linear_7_1626)"/>
<path d="M47.5508 72.1911C44.7846 74.9591 32.1675 66.8294 19.3723 54.0333C6.57722 41.2373 -1.5534 28.621 1.2146 25.8521C2.73796 24.3288 7.24812 26.1109 13.1291 30.1517C12.5472 32.2388 12.2376 34.4367 12.2376 36.709C12.2376 50.2159 23.1871 61.1653 36.6958 61.1653C38.9663 61.1653 41.166 60.8549 43.2513 60.2757C47.2948 66.1567 49.076 70.6659 47.5508 72.1911Z" fill="url(#paint3_linear_7_1626)"/>
<path d="M26.1396 14.6444C21.112 17.0502 17.034 21.1264 14.6282 26.154C6.87702 16.0298 3.05138 7.93637 5.48621 5.50245C7.92104 3.0658 16.0144 6.89416 26.1396 14.6444Z" fill="#56E7DF"/>
<path d="M67.9043 67.9189C65.4677 70.3529 57.3752 66.5272 47.25 58.777C52.2776 56.3685 56.3556 52.2932 58.7614 47.2646C66.5126 57.3898 70.3409 65.4823 67.9043 67.9189Z" fill="#DBF926"/>
<path d="M43.25 60.2759C41.1647 60.8551 38.965 61.1655 36.6945 61.1655C23.1858 61.1655 12.2363 50.2161 12.2363 36.7092C12.2363 34.4369 12.5468 32.239 13.1278 30.1519C17.9276 33.4546 23.6397 38.2598 29.3918 44.0119C35.1421 49.7612 39.95 55.477 43.25 60.2759Z" fill="white"/>
<path d="M58.7609 47.2647C56.3542 52.2923 52.2771 56.3685 47.2495 58.777C41.8723 54.6599 35.9232 49.4389 29.9451 43.4608C23.967 37.4809 18.7432 31.5309 14.6289 26.1546C17.0347 21.127 21.1127 17.0508 26.1403 14.645C31.5175 18.7621 37.4666 23.9831 43.4447 29.9612C49.4228 35.9393 54.6438 41.8884 58.7609 47.2647Z" fill="white"/>
<path d="M61.1511 36.7093C61.1511 38.9735 60.8434 41.1641 60.266 43.2449C55.4662 39.9449 49.7559 35.1388 44.0111 29.3939C38.2663 23.6491 33.4602 17.9379 30.1602 13.1391C32.2409 12.5617 34.4315 12.2539 36.6957 12.2539C50.2017 12.253 61.1511 23.2034 61.1511 36.7093Z" fill="white"/>
<defs>
<linearGradient id="paint0_linear_7_1626" x1="47.8224" y1="1.22992" x2="71.201" y2="25.2394" gradientUnits="userSpaceOnUse">
<stop stop-color="#FFF200"/>
<stop offset="1" stop-color="#F179AF"/>
</linearGradient>
<linearGradient id="paint1_linear_7_1626" x1="33.6827" y1="7.26667" x2="66.1914" y2="41.7889" gradientUnits="userSpaceOnUse">
<stop stop-color="#E37A25"/>
<stop offset="1" stop-color="#F494BE"/>
</linearGradient>
<linearGradient id="paint2_linear_7_1626" x1="5.60231" y1="51.56" x2="24.4192" y2="71.1127" gradientUnits="userSpaceOnUse">
<stop stop-color="#E0A9FC"/>
<stop offset="1" stop-color="#8AE4F0"/>
</linearGradient>
<linearGradient id="paint3_linear_7_1626" x1="9.42791" y1="35.3601" x2="43.1753" y2="68.6707" gradientUnits="userSpaceOnUse">
<stop stop-color="#82A3FF"/>
<stop offset="1" stop-color="#8FF2F4"/>
</linearGradient>
</defs>
</svg>
