<svg width="64" height="64" viewBox="0 0 64 64" fill="none" xmlns="http://www.w3.org/2000/svg">
<path d="M15.9993 61.3334C14.5266 61.3334 13.3327 60.1395 13.3327 58.6667C13.3327 57.194 14.5266 56.0001 15.9993 56.0001C17.4721 56.0001 18.666 57.194 18.666 58.6667C18.666 60.1395 17.4721 61.3334 15.9993 61.3334Z" fill="#000B3A"/>
<path d="M47.9994 8.00008C46.5266 8.00008 45.3327 6.80617 45.3327 5.33341C45.3327 3.86066 46.5266 2.66675 47.9994 2.66675C49.4721 2.66675 50.666 3.86066 50.666 5.33341C50.666 6.80617 49.4721 8.00008 47.9994 8.00008Z" fill="#000B3A"/>
<path d="M58.666 18.6667C57.1933 18.6667 55.9994 17.4728 55.9994 16.0001C55.9994 14.5273 57.1933 13.3334 58.666 13.3334C60.1388 13.3334 61.3327 14.5273 61.3327 16.0001C61.3327 17.4728 60.1388 18.6667 58.666 18.6667Z" fill="#000B3A"/>
<path d="M28.5187 13.4043C29.4038 9.75425 34.5949 9.75424 35.48 13.4042L37.9153 23.4475C38.2313 24.7506 39.2488 25.7681 40.552 26.0841L50.5952 28.5194C54.2452 29.4045 54.2452 34.5956 50.5952 35.4807L40.552 37.9161C39.2488 38.2321 38.2313 39.2495 37.9153 40.5527L35.48 50.5959C34.5949 54.2459 29.4038 54.2459 28.5187 50.5959L26.0834 40.5527C25.7674 39.2495 24.7499 38.2321 23.4467 37.9161L13.4035 35.4807C9.75352 34.5956 9.75351 29.4045 13.4035 28.5194L23.4467 26.0841C24.7499 25.7681 25.7674 24.7506 26.0834 23.4475L28.5187 13.4043Z" fill="#000B3A"/>
<path fill-rule="evenodd" clip-rule="evenodd" d="M59.5052 39.9877C60.747 40.4511 61.378 41.8336 60.9145 43.0754C57.9123 51.1192 51.6797 57.5805 43.7936 60.8807C42.5709 61.3924 41.1648 60.816 40.6531 59.5933C40.1414 58.3705 40.7178 56.9645 41.9406 56.4528C48.6059 53.6635 53.8799 48.1959 56.4175 41.3969C56.881 40.1551 58.2634 39.5242 59.5052 39.9877Z" fill="#000B3A"/>
<path fill-rule="evenodd" clip-rule="evenodd" d="M24.0547 4.49245C24.5192 5.7339 23.8893 7.1168 22.6479 7.58125C15.8115 10.1389 10.3213 15.4745 7.55272 22.2151C7.04913 23.4412 5.64695 24.0269 4.42085 23.5233C3.19476 23.0197 2.60906 21.6176 3.11264 20.3915C6.38693 12.4195 12.874 6.11296 20.9659 3.08558C22.2074 2.62112 23.5903 3.251 24.0547 4.49245Z" fill="#000B3A"/>
<path d="M5.33268 50.6667C3.85992 50.6667 2.66602 49.4728 2.66602 48.0001C2.66602 46.5273 3.85992 45.3334 5.33268 45.3334C6.80544 45.3334 7.99935 46.5273 7.99935 48.0001C7.99935 49.4728 6.80544 50.6667 5.33268 50.6667Z" fill="#000B3A"/>
</svg>
