<svg width="129" height="41" viewBox="0 0 129 41" fill="none" xmlns="http://www.w3.org/2000/svg">
<path d="M40.233 14.7662C39.3615 15.6377 35.3873 13.0772 31.3567 9.04654C27.326 5.01589 24.7655 1.04222 25.637 0.170225C26.5085 -0.701266 30.4827 1.85924 34.5133 5.88989C38.544 9.92003 41.105 13.8942 40.233 14.7662Z" fill="url(#paint0_linear_7_1794)"/>
<path d="M39.7374 26.174C38.8979 27.0125 36.4139 26.0316 33.1733 23.8039C33.4911 22.6586 33.6605 21.4528 33.6605 20.2065C33.6605 12.7719 27.6335 6.74487 20.1988 6.74487C18.9526 6.74487 17.7468 6.91427 16.6014 7.23209C14.3732 3.99248 13.3918 1.50743 14.2313 0.667924C15.7549 -0.855685 22.6999 3.61919 29.7433 10.6626C36.7861 17.7055 41.26 24.6504 39.7374 26.174Z" fill="url(#paint1_linear_7_1794)"/>
<path d="M14.7662 40.2343C13.8937 41.1058 9.92005 38.5448 5.8899 34.5142C1.85876 30.484 -0.701243 26.5093 0.170248 25.6379C1.04174 24.7664 5.01642 27.3274 9.04656 31.358C13.0767 35.3882 15.6382 39.3618 14.7662 40.2343Z" fill="url(#paint2_linear_7_1794)"/>
<path d="M26.1739 39.7366C24.6512 41.2602 17.7063 36.7853 10.6634 29.7419C3.62053 22.6985 -0.854854 15.7541 0.668756 14.23C1.50727 13.3915 3.98982 14.3724 7.22692 16.5966C6.90661 17.7454 6.73621 18.9552 6.73621 20.206C6.73621 27.6406 12.7632 33.6676 20.1988 33.6676C21.4486 33.6676 22.6594 33.4967 23.8072 33.1779C26.0329 36.415 27.0134 38.8971 26.1739 39.7366Z" fill="url(#paint3_linear_7_1794)"/>
<path d="M14.3884 8.06059C11.621 9.38481 9.37636 11.6285 8.05213 14.3959C3.78563 8.82314 1.67986 4.36825 3.02008 3.02853C4.36029 1.68731 8.81519 3.79458 14.3884 8.06059Z" fill="#56E7DF"/>
<path d="M37.3767 37.385C36.0355 38.7247 31.5811 36.6189 26.0078 32.3529C28.7752 31.0272 31.0199 28.784 32.3441 26.0161C36.6106 31.5894 38.7179 36.0438 37.3767 37.385Z" fill="#DBF926"/>
<path d="M23.8054 33.1779C22.6576 33.4967 21.4468 33.6676 20.197 33.6676C12.7614 33.6676 6.73438 27.6407 6.73438 20.206C6.73438 18.9552 6.90528 17.7454 7.22509 16.5966C9.86704 18.4146 13.0112 21.0595 16.1774 24.2257C19.3425 27.3903 21.989 30.5365 23.8054 33.1779Z" fill="white"/>
<path d="M32.3445 26.0161C31.0198 28.7835 28.7756 31.0272 26.0082 32.3529C23.0485 30.0867 19.7739 27.2129 16.4833 23.9223C13.1927 20.6308 10.3174 17.3557 8.05273 14.3964C9.37696 11.629 11.6216 9.38532 14.389 8.0611C17.3488 10.3273 20.6234 13.2011 23.914 16.4917C27.2045 19.7822 30.0784 23.0568 32.3445 26.0161Z" fill="white"/>
<path d="M33.6601 20.206C33.6601 21.4523 33.4907 22.6581 33.1729 23.8034C30.5309 21.987 27.3878 19.3415 24.2256 16.1794C21.0635 13.0172 18.418 9.87354 16.6016 7.23209C17.7469 6.91427 18.9527 6.74487 20.199 6.74487C27.6331 6.74437 33.6601 12.7719 33.6601 20.206Z" fill="white"/>
<path d="M65.6953 12.609V23.8039H61.7571V13.0102C61.7571 10.2753 60.189 8.78021 57.673 8.78021C54.9016 8.78021 53.0417 10.4942 53.0417 14.0311V23.8039H49.1035V5.57109H53.0417V7.90472C54.245 6.04481 56.1049 5.09686 58.6939 5.09686C62.8875 5.09686 65.6953 7.9412 65.6953 12.609Z" fill="white"/>
<path d="M73.937 16.3648C74.5207 19.1362 76.7449 20.6678 79.7716 20.6678C81.8499 20.6678 83.418 19.9017 84.4753 18.4071L87.7209 20.3035C85.934 22.9654 83.272 24.2781 79.7351 24.2781C76.7813 24.2781 74.3747 23.3667 72.5513 21.5797C70.7279 19.7563 69.8164 17.4591 69.8164 14.6877C69.8164 11.9528 70.7279 9.69217 72.5148 7.86874C74.3018 6.00882 76.6354 5.09735 79.4433 5.09735C82.1052 5.09735 84.2929 6.0453 86.0069 7.90521C87.7209 9.76513 88.5959 12.0623 88.5959 14.7242C88.5959 15.1255 88.5595 15.6722 88.45 16.3653H73.937V16.3648ZM84.6218 13.1556C84.0746 10.2019 81.9963 8.67026 79.4073 8.67026C76.49 8.67026 74.4482 10.3843 73.901 13.1556H84.6218Z" fill="white"/>
<path d="M108.36 23.8039H103.802L99.2801 17.5681L94.7218 23.8039H90.127L96.9825 14.4324L90.4917 5.57111H95.0501L99.2436 11.3327L103.437 5.57111H108.032L101.541 14.4689L108.36 23.8039Z" fill="white"/>
<path d="M125.061 5.57108H128.999V23.8039H125.061V21.1785C123.565 23.2567 121.451 24.2781 118.679 24.2781C116.163 24.2781 114.048 23.3667 112.262 21.5068C110.475 19.6468 109.6 17.3497 109.6 14.6877C109.6 11.9893 110.475 9.72865 112.262 7.86874C114.049 6.00882 116.163 5.09735 118.679 5.09735C121.451 5.09735 123.566 6.11826 125.061 8.16056V5.57108ZM119.299 20.5218C120.94 20.5218 122.326 19.9747 123.42 18.8808C124.513 17.7505 125.061 16.3648 125.061 14.6872C125.061 13.0097 124.513 11.624 123.42 10.5302C122.326 9.39984 120.94 8.85266 119.299 8.85266C117.658 8.85266 116.272 9.39984 115.178 10.5302C114.084 11.624 113.537 13.0097 113.537 14.6872C113.537 16.3648 114.084 17.7505 115.178 18.8808C116.272 19.9747 117.658 20.5218 119.299 20.5218Z" fill="white"/>
<path d="M54.8297 28.1984H55.6537V36.4405H54.9471L50.3553 29.7295V36.441H49.5312V28.1989H50.2378L54.8297 34.9104V28.1984Z" fill="white"/>
<path d="M62.5418 31.3425C63.0835 31.9547 63.3543 32.6847 63.3543 33.5207C63.3543 33.6032 63.3423 33.7326 63.3308 33.8855H58.1619C58.3148 35.0748 59.2452 35.8284 60.505 35.8284C61.4 35.8284 62.0711 35.4281 62.4009 34.8275L63.084 35.2277C62.5658 36.0638 61.6358 36.5819 60.4935 36.5819C59.5635 36.5819 58.81 36.2876 58.2328 35.7105C57.6562 35.1333 57.3613 34.3917 57.3613 33.4967C57.3613 32.6138 57.6442 31.8837 58.2208 31.295C58.7975 30.7064 59.5276 30.412 60.4345 30.412C61.3055 30.412 62.0121 30.7184 62.5418 31.3425ZM58.1619 33.132H62.5538C62.4713 32.5078 62.236 32.0251 61.8357 31.6838C61.4354 31.3425 60.9642 31.1656 60.4345 31.1656C59.2097 31.1656 58.3148 31.9666 58.1619 33.132Z" fill="white"/>
<path d="M67.828 31.3071H66.1325V34.875C66.1325 35.8874 66.6976 35.8049 67.828 35.7579V36.4411C66.1794 36.6884 65.3554 36.2407 65.3554 34.875V31.3071H64.1191V30.5535H65.3554V29.1408L66.1325 28.9055V30.554H67.828V31.3071Z" fill="white"/>
<path d="M76.5068 30.5535H77.3074L75.4939 36.4405H74.6464L73.1273 31.6953L71.6082 36.4405H70.7607L68.9473 30.5535H69.7478L71.196 35.4401L72.7385 30.5535H73.5156L75.0582 35.4401L76.5068 30.5535Z" fill="white"/>
<path d="M81.5205 36.5819C80.661 36.5819 79.9194 36.2876 79.3188 35.699C78.7182 35.0983 78.4238 34.3682 78.4238 33.4972C78.4238 32.6258 78.7182 31.8957 79.3188 31.307C79.9194 30.7064 80.661 30.412 81.5205 30.412C82.38 30.412 83.1101 30.7064 83.7107 31.307C84.3114 31.8957 84.6172 32.6258 84.6172 33.4972C84.6172 34.3687 84.3109 35.0983 83.7107 35.699C83.1101 36.2876 82.38 36.5819 81.5205 36.5819ZM81.5205 35.8284C82.1681 35.8284 82.7213 35.6045 83.1691 35.1573C83.6163 34.6981 83.8402 34.1449 83.8402 33.4972C83.8402 32.8496 83.6163 32.2964 83.1691 31.8487C82.7218 31.3895 82.1681 31.1656 81.5205 31.1656C80.8729 31.1656 80.3197 31.3895 79.872 31.8487C79.4247 32.2959 79.2009 32.8496 79.2009 33.4972C79.2009 34.1449 79.4247 34.6981 79.872 35.1573C80.3192 35.6045 80.8729 35.8284 81.5205 35.8284Z" fill="white"/>
<path d="M86.9841 31.5309C87.3489 30.8128 87.9615 30.4595 88.8445 30.4595V31.2131C87.7731 31.2131 86.9841 31.8137 86.9841 33.1674V36.4405H86.207V30.5535H86.9841V31.5309Z" fill="white"/>
<path d="M94.9564 36.4405H93.92L90.9763 33.6027V36.4405H90.1992V28.1984H90.9763V33.1555L93.7786 30.5535H94.8385L91.8008 33.3793L94.9564 36.4405Z" fill="white"/>
<defs>
<linearGradient id="paint0_linear_7_1794" x1="26.3226" y1="0.676989" x2="39.191" y2="13.8926" gradientUnits="userSpaceOnUse">
<stop stop-color="#FFF200"/>
<stop offset="1" stop-color="#F179AF"/>
</linearGradient>
<linearGradient id="paint1_linear_7_1794" x1="18.5398" y1="3.99998" x2="36.4337" y2="23.0022" gradientUnits="userSpaceOnUse">
<stop stop-color="#E37A25"/>
<stop offset="1" stop-color="#F494BE"/>
</linearGradient>
<linearGradient id="paint2_linear_7_1794" x1="3.08371" y1="28.3803" x2="13.4412" y2="39.1427" gradientUnits="userSpaceOnUse">
<stop stop-color="#E0A9FC"/>
<stop offset="1" stop-color="#8AE4F0"/>
</linearGradient>
<linearGradient id="paint3_linear_7_1794" x1="5.18965" y1="19.4635" x2="23.7654" y2="37.7988" gradientUnits="userSpaceOnUse">
<stop stop-color="#82A3FF"/>
<stop offset="1" stop-color="#8FF2F4"/>
</linearGradient>
</defs>
</svg>
