<svg width="239" height="75" viewBox="0 0 239 75" fill="none" xmlns="http://www.w3.org/2000/svg">
<path d="M74.5425 27.3566C72.9278 28.9712 65.5648 24.2273 58.0972 16.7597C50.6296 9.29208 45.8857 1.93 47.5012 0.315379C49.1159 -1.29924 56.4789 3.44463 63.9465 10.9123C71.4141 18.3799 76.158 25.742 74.5425 27.3566Z" fill="url(#paint0_linear_7_1717)"/>
<path d="M73.6214 48.493C72.066 50.0465 67.4638 48.2291 61.4599 44.1018C62.0487 41.9799 62.3626 39.7459 62.3626 37.4369C62.3626 23.6626 51.1963 12.4963 37.422 12.4963C35.113 12.4963 32.879 12.8102 30.7571 13.399C26.6298 7.39696 24.8106 2.79195 26.3659 1.23658C29.1887 -1.58623 42.0557 6.70445 55.1051 19.7538C68.1535 32.8032 76.4424 45.6702 73.6214 48.493Z" fill="url(#paint1_linear_7_1717)"/>
<path d="M27.3576 74.5427C25.7411 76.1573 18.379 71.4125 10.9123 63.9449C3.44375 56.4782 -1.2992 49.1143 0.315421 47.4997C1.93004 45.885 9.29398 50.6298 16.7607 58.0975C24.2274 65.5642 28.9731 72.9262 27.3576 74.5427Z" fill="url(#paint2_linear_7_1717)"/>
<path d="M48.4906 73.6195C45.6697 76.4423 32.8027 68.1516 19.7543 55.1023C6.70582 42.0529 -1.58578 29.1868 1.23703 26.364C2.79055 24.8105 7.39 26.6279 13.3874 30.7487C12.794 32.8771 12.4783 35.1185 12.4783 37.4359C12.4783 51.2101 23.6445 62.3764 37.4207 62.3764C39.7361 62.3764 41.9794 62.0598 44.106 61.4691C48.2296 67.4665 50.046 72.0641 48.4906 73.6195Z" fill="url(#paint3_linear_7_1717)"/>
<path d="M26.6575 14.9341C21.5303 17.3875 17.3716 21.5444 14.9182 26.6716C7.01356 16.3469 3.11125 8.09323 5.59428 5.61112C8.07824 3.12623 16.3319 7.03039 26.6575 14.9341Z" fill="#56E7DF"/>
<path d="M69.2468 69.2637C66.7619 71.7458 58.5092 67.8444 48.1836 59.9407C53.3108 57.4845 57.4695 53.3285 59.9229 48.2004C67.8275 58.5261 71.7317 66.7788 69.2468 69.2637Z" fill="#DBF926"/>
<path d="M44.1062 61.4692C41.9796 62.0599 39.7364 62.3765 37.4209 62.3765C23.6448 62.3765 12.4785 51.2102 12.4785 37.4359C12.4785 35.1186 12.7951 32.8772 13.3877 30.7488C18.2825 34.1169 24.1077 39.0172 29.9736 44.8832C35.8378 50.7464 40.7409 56.5744 44.1062 61.4692Z" fill="#000B3A"/>
<path d="M59.9237 48.2005C57.4694 53.3277 53.3115 57.4846 48.1844 59.9408C42.7008 55.7422 36.6339 50.4179 30.5374 44.3214C24.4409 38.223 19.1138 32.1552 14.918 26.6725C17.3714 21.5454 21.5301 17.3885 26.6573 14.9351C32.1409 19.1336 38.2078 24.458 44.3043 30.5545C50.4008 36.651 55.7251 42.7169 59.9237 48.2005Z" fill="#000B3A"/>
<path d="M62.3613 37.4359C62.3613 39.7449 62.0475 41.9789 61.4587 44.1008C56.5648 40.7355 50.7405 35.8342 44.882 29.9757C39.0225 24.1171 34.1212 18.2928 30.7559 13.398C32.8778 12.8092 35.1118 12.4954 37.4208 12.4954C51.1951 12.4954 62.3613 23.6616 62.3613 37.4359Z" fill="#000B3A"/>
<path d="M121.714 23.3597V44.1008H114.418V24.1032C114.418 19.0362 111.513 16.2661 106.851 16.2661C101.717 16.2661 98.271 19.4417 98.271 25.9946V44.1008H90.9746V10.3215H98.271V14.645C100.5 11.1991 103.946 9.44287 108.743 9.44287C116.512 9.44287 121.714 14.7126 121.714 23.3597Z" fill="#000B3A"/>
<path d="M136.984 30.3191C138.065 35.4537 142.186 38.2913 147.794 38.2913C151.644 38.2913 154.549 36.8721 156.508 34.1029L162.522 37.6164C159.211 42.5482 154.279 44.9803 147.726 44.9803C142.254 44.9803 137.795 43.2917 134.417 39.9809C131.038 36.6026 129.35 32.3467 129.35 27.2121C129.35 22.1451 131.038 17.9567 134.349 14.5784C137.66 11.1325 141.983 9.44385 147.185 9.44385C152.117 9.44385 156.17 11.2001 159.346 14.646C162.522 18.0919 164.143 22.3479 164.143 27.2797C164.143 28.0231 164.075 29.036 163.872 30.3201H136.984V30.3191ZM156.78 24.3735C155.766 18.901 151.915 16.0634 147.119 16.0634C141.714 16.0634 137.931 19.239 136.917 24.3735H156.78Z" fill="#000B3A"/>
<path d="M200.76 44.1008H192.314L183.937 32.5475L175.491 44.1008H166.979L179.68 26.738L167.654 10.3206H176.1L183.869 20.9952L191.639 10.3206H200.151L188.126 26.8056L200.76 44.1008Z" fill="#000B3A"/>
<path d="M231.703 10.3215H239V44.1017H231.703V39.2375C228.933 43.088 225.015 44.9803 219.881 44.9803C215.219 44.9803 211.3 43.2917 207.99 39.8458C204.68 36.3999 203.059 32.1439 203.059 27.2121C203.059 22.2127 204.68 18.0243 207.99 14.5784C211.301 11.1325 215.219 9.44385 219.881 9.44385C225.015 9.44385 228.934 11.3353 231.703 15.1191V10.3215ZM221.029 38.021C224.069 38.021 226.636 37.0072 228.663 34.9806C230.69 32.8864 231.703 30.3191 231.703 27.2112C231.703 24.1032 230.69 21.5359 228.663 19.5093C226.636 17.4151 224.069 16.4014 221.029 16.4014C217.988 16.4014 215.421 17.4151 213.394 19.5093C211.368 21.5359 210.354 24.1032 210.354 27.2112C210.354 30.3191 211.368 32.8864 213.394 34.9806C215.421 37.0072 217.988 38.021 221.029 38.021Z" fill="#000B3A"/>
<path d="M101.584 52.2434H103.111V67.5138H101.802L93.2942 55.0792V67.5138H91.7676V52.2434H93.0767L101.584 64.678V52.2434Z" fill="#000B3A"/>
<path d="M115.871 58.0688C116.875 59.203 117.377 60.5556 117.377 62.1045C117.377 62.2572 117.355 62.497 117.333 62.7803H107.757C108.04 64.9838 109.764 66.3799 112.098 66.3799C113.756 66.3799 114.999 65.6383 115.61 64.5255L116.876 65.2671C115.916 66.8159 114.193 67.776 112.076 67.776C110.353 67.776 108.957 67.2307 107.888 66.1614C106.82 65.0921 106.273 63.7182 106.273 62.06C106.273 60.4241 106.797 59.0715 107.866 57.9809C108.934 56.8903 110.287 56.345 111.967 56.345C113.581 56.345 114.89 56.9125 115.871 58.0688ZM107.757 61.3842H115.894C115.741 60.2278 115.305 59.3335 114.563 58.7012C113.822 58.0688 112.949 57.7411 111.967 57.7411C109.698 57.7411 108.04 59.2243 107.757 61.3842Z" fill="#000B3A"/>
<path d="M125.666 58.0029H122.525V64.6133C122.525 66.489 123.572 66.3362 125.666 66.2492V67.5148C122.612 67.973 121.085 67.1435 121.085 64.6133V58.0029H118.795V56.6068H121.085V53.9895L122.525 53.5535V56.6077H125.666V58.0029Z" fill="#000B3A"/>
<path d="M141.744 56.6069H143.227L139.867 67.514H138.297L135.483 58.7224L132.668 67.514H131.098L127.738 56.6069H129.221L131.904 65.6605L134.762 56.6069H136.202L139.06 65.6605L141.744 56.6069Z" fill="#000B3A"/>
<path d="M151.036 67.776C149.444 67.776 148.07 67.2307 146.957 66.1401C145.844 65.0273 145.299 63.6747 145.299 62.061C145.299 60.4463 145.844 59.0937 146.957 58.0031C148.07 56.8903 149.444 56.345 151.036 56.345C152.629 56.345 153.981 56.8903 155.094 58.0031C156.207 59.0937 156.773 60.4463 156.773 62.061C156.773 63.6756 156.206 65.0273 155.094 66.1401C153.981 67.2307 152.629 67.776 151.036 67.776ZM151.036 66.3799C152.236 66.3799 153.261 65.9651 154.09 65.1365C154.919 64.2857 155.334 63.2608 155.334 62.061C155.334 60.8611 154.919 59.8362 154.09 59.0067C153.262 58.1559 152.236 57.7411 151.036 57.7411C149.836 57.7411 148.811 58.1559 147.982 59.0067C147.153 59.8353 146.738 60.8611 146.738 62.061C146.738 63.2608 147.153 64.2857 147.982 65.1365C148.81 65.9651 149.836 66.3799 151.036 66.3799Z" fill="#000B3A"/>
<path d="M161.156 58.4178C161.832 57.0874 162.967 56.4329 164.603 56.4329V57.829C162.618 57.829 161.156 58.9418 161.156 61.4499V67.5139H159.717V56.6069H161.156V58.4178Z" fill="#000B3A"/>
<path d="M175.927 67.5138H174.007L168.553 62.2561V67.5138H167.113V52.2434H168.553V61.4275L173.745 56.6068H175.709L170.081 61.8423L175.927 67.5138Z" fill="#000B3A"/>
<defs>
<linearGradient id="paint0_linear_7_1717" x1="48.7705" y1="1.25412" x2="72.612" y2="25.7389" gradientUnits="userSpaceOnUse">
<stop stop-color="#FFF200"/>
<stop offset="1" stop-color="#F179AF"/>
</linearGradient>
<linearGradient id="paint1_linear_7_1717" x1="34.3483" y1="7.4107" x2="67.5006" y2="42.6164" gradientUnits="userSpaceOnUse">
<stop stop-color="#E37A25"/>
<stop offset="1" stop-color="#F494BE"/>
</linearGradient>
<linearGradient id="paint2_linear_7_1717" x1="5.71323" y1="52.5804" x2="24.9026" y2="72.5202" gradientUnits="userSpaceOnUse">
<stop stop-color="#E0A9FC"/>
<stop offset="1" stop-color="#8AE4F0"/>
</linearGradient>
<linearGradient id="paint3_linear_7_1717" x1="9.61295" y1="36.0601" x2="44.0285" y2="70.0302" gradientUnits="userSpaceOnUse">
<stop stop-color="#82A3FF"/>
<stop offset="1" stop-color="#8FF2F4"/>
</linearGradient>
</defs>
</svg>
