<svg width="64" height="64" viewBox="0 0 64 64" fill="none" xmlns="http://www.w3.org/2000/svg">
<path fill-rule="evenodd" clip-rule="evenodd" d="M38.8673 12.8738C34.8579 8.86439 28.3574 8.8644 24.348 12.8738L14.6113 22.6105L14.6247 22.6239C12.51 24.9139 11.1777 27.2955 10.8918 29.8652C10.5725 32.7346 11.6062 35.3851 13.3865 37.8578C13.5492 38.0838 13.6108 38.3836 13.551 38.6729C13.4929 38.954 13.3422 39.138 13.1613 39.2335C10.5827 40.5948 7.52311 42.5962 5.92084 45.2697C5.07711 46.6776 4.59223 48.3493 4.88509 50.1941C5.17377 52.0125 6.17318 53.7149 7.75655 55.2983C9.36494 56.9067 11.0941 57.9111 12.9318 58.2385C14.784 58.5686 16.4976 58.1665 17.9793 57.4039C20.8175 55.9429 23.0388 53.0412 24.5704 50.5831C24.6717 50.4205 24.8557 50.2807 25.1479 50.2294C25.4518 50.176 25.7872 50.2393 26.0535 50.4123C28.303 51.8738 30.798 52.6365 33.5061 52.1902C35.9067 51.7946 38.1978 50.4934 40.431 48.4302L40.4443 48.4435L50.181 38.7067C54.1904 34.6973 54.1904 28.1969 50.181 24.1875L38.8673 12.8738ZM37.2224 45.2216L17.8333 25.8325C16.2072 27.6283 15.5371 29.1099 15.3973 30.3665C15.2437 31.7474 15.6834 33.2894 17.0655 35.209C18.9087 37.7692 18.2848 41.6551 15.2776 43.2425C12.8079 44.5463 10.7292 46.0653 9.80933 47.6001C9.39201 48.2965 9.26989 48.9009 9.36235 49.4833C9.45899 50.092 9.83724 50.9678 10.9621 52.0927C12.0949 53.2255 13.0249 53.6504 13.7271 53.7755C14.4149 53.8981 15.122 53.776 15.9045 53.3732C17.5947 52.5032 19.2758 50.5081 20.7227 48.1858C22.4565 45.4032 26.0994 45.036 28.5233 46.6109C30.0727 47.6175 31.437 47.9367 32.769 47.7172C33.9958 47.515 35.4686 46.811 37.2224 45.2216ZM27.5536 16.0793C29.7926 13.8403 33.4227 13.8403 35.6618 16.0793L46.9755 27.393C49.2145 29.632 49.2145 33.2622 46.9755 35.5012L40.4443 42.0324L21.0224 22.6105L27.5536 16.0793Z" fill="#000B3A"/>
<path d="M52.0274 3.69331C52.3593 2.32456 54.306 2.32456 54.6379 3.69331L55.5512 7.45952C55.6697 7.94821 56.0512 8.32976 56.5399 8.44826L60.3061 9.36151C61.6749 9.69341 61.6749 11.6401 60.3061 11.972L56.5399 12.8852C56.0512 13.0037 55.6697 13.3853 55.5512 13.874L54.6379 17.6402C54.306 19.0089 52.3593 19.0089 52.0274 17.6402L51.1142 13.874C50.9957 13.3853 50.6141 13.0037 50.1255 12.8852L46.3592 11.972C44.9905 11.6401 44.9905 9.69341 46.3592 9.36151L50.1255 8.44826C50.6141 8.32976 50.9957 7.94821 51.1142 7.45952L52.0274 3.69331Z" fill="#000B3A"/>
<path fill-rule="evenodd" clip-rule="evenodd" d="M53.3327 5.14966L52.6805 7.83932C52.4198 8.91443 51.5804 9.75385 50.5053 10.0145L47.8156 10.6667L50.5053 11.319C51.5804 11.5796 52.4198 12.4191 52.6805 13.4942L53.3327 16.1838L53.9849 13.4942C54.2456 12.4191 55.085 11.5796 56.1601 11.319L58.8498 10.6667L56.1601 10.0145C55.085 9.75385 54.2456 8.91443 53.9849 7.83932L53.3327 5.14966ZM54.6379 3.69331C54.306 2.32456 52.3593 2.32456 52.0274 3.69331L51.1142 7.45952C50.9957 7.94821 50.6141 8.32976 50.1255 8.44826L46.3592 9.36151C44.9905 9.69341 44.9905 11.6401 46.3592 11.972L50.1255 12.8852C50.6141 13.0037 50.9957 13.3853 51.1142 13.874L52.0274 17.6402C52.3593 19.0089 54.306 19.0089 54.6379 17.6402L55.5512 13.874C55.6697 13.3853 56.0512 13.0037 56.5399 12.8852L60.3061 11.972C61.6749 11.6401 61.6749 9.69341 60.3061 9.36151L56.5399 8.44826C56.0512 8.32976 55.6697 7.94821 55.5512 7.45952L54.6379 3.69331Z" fill="#000B3A"/>
<path d="M7.99935 13.3334C7.99935 14.8062 6.80544 16.0001 5.33268 16.0001C3.85992 16.0001 2.66602 14.8062 2.66602 13.3334C2.66602 11.8607 3.85992 10.6667 5.33268 10.6667C6.80544 10.6667 7.99935 11.8607 7.99935 13.3334Z" fill="#000B3A"/>
<path d="M18.666 5.33341C18.666 6.80617 17.4721 8.00008 15.9993 8.00008C14.5266 8.00008 13.3327 6.80617 13.3327 5.33341C13.3327 3.86066 14.5266 2.66675 15.9993 2.66675C17.4721 2.66675 18.666 3.86066 18.666 5.33341Z" fill="#000B3A"/>
<path d="M53.5783 48.8556C53.8549 47.7149 55.4771 47.7149 55.7537 48.8556L56.5148 51.9941C56.6135 52.4013 56.9315 52.7193 57.3387 52.818L60.4772 53.5791C61.6178 53.8556 61.6178 55.4779 60.4772 55.7544L57.3387 56.5155C56.9315 56.6142 56.6135 56.9322 56.5148 57.3394L55.7537 60.4779C55.4771 61.6186 53.8549 61.6186 53.5783 60.4779L52.8173 57.3394C52.7185 56.9322 52.4006 56.6142 51.9933 56.5155L48.8548 55.7544C47.7142 55.4779 47.7142 53.8556 48.8548 53.5791L51.9933 52.818C52.4006 52.7193 52.7185 52.4013 52.8173 51.9941L53.5783 48.8556Z" fill="#000B3A"/>
<path fill-rule="evenodd" clip-rule="evenodd" d="M54.666 50.0692L54.1225 52.3106C53.9053 53.2065 53.2057 53.906 52.3098 54.1232L50.0684 54.6667L52.3098 55.2103C53.2057 55.4275 53.9053 56.127 54.1225 57.0229L54.666 59.2643L55.2095 57.0229C55.4268 56.127 56.1263 55.4275 57.0222 55.2103L59.2636 54.6667L57.0222 54.1232C56.1263 53.906 55.4268 53.2065 55.2095 52.3106L54.666 50.0692ZM55.7537 48.8556C55.4771 47.7149 53.8549 47.7149 53.5783 48.8556L52.8173 51.9941C52.7185 52.4013 52.4006 52.7193 51.9933 52.818L48.8548 53.5791C47.7142 53.8556 47.7142 55.4779 48.8548 55.7544L51.9933 56.5155C52.4006 56.6142 52.7185 56.9322 52.8173 57.3394L53.5783 60.4779C53.8549 61.6186 55.4771 61.6186 55.7537 60.4779L56.5148 57.3394C56.6135 56.9322 56.9315 56.6142 57.3387 56.5155L60.4772 55.7544C61.6178 55.4779 61.6178 53.8556 60.4772 53.5791L57.3387 52.818C56.9315 52.7193 56.6135 52.4013 56.5148 51.9941L55.7537 48.8556Z" fill="#000B3A"/>
</svg>
